<svg width="136" height="27" viewBox="0 0 136 27" fill="none" xmlns="http://www.w3.org/2000/svg">
<path d="M38.4819 4.26059C38.7074 4.25926 38.931 4.30092 39.1409 4.38335C39.3445 4.46749 39.5323 4.58544 39.6966 4.73222C39.8648 4.88443 40.0067 5.06344 40.1165 5.26199C40.2362 5.4663 40.3214 5.68895 40.3685 5.92097L42.5395 15.9737H42.9659C43.3191 14.337 43.6809 12.6637 44.0513 10.9538C44.4218 9.24389 44.7901 7.56628 45.1562 5.92097C45.2277 5.61732 45.3431 5.32569 45.4986 5.05525C45.6458 4.82085 45.8367 4.61689 46.0607 4.45441C46.3342 4.26237 46.6638 4.1669 46.9976 4.18307C47.2643 4.17769 47.5289 4.23061 47.7729 4.33812C47.9832 4.43573 48.1721 4.57407 48.3286 4.74514C48.4708 4.90187 48.5825 5.08372 48.6581 5.28137C48.7245 5.46142 48.7595 5.65155 48.7615 5.84345C48.7615 5.94682 48.7572 6.04373 48.7486 6.13417C48.7423 6.21479 48.7293 6.29475 48.7098 6.37322C48.6926 6.45936 48.6753 6.53473 48.6581 6.59934L45.2079 20.3088C45.0859 20.5886 44.9153 20.8445 44.7039 21.0647C44.5056 21.2752 44.2743 21.452 44.019 21.588C43.6934 21.7536 43.331 21.8337 42.9659 21.8206H42.5395C42.1804 21.8354 41.8238 21.7552 41.5057 21.588C41.2603 21.4542 41.0414 21.2769 40.8596 21.0647C40.6762 20.8405 40.5359 20.5842 40.4461 20.3088L38.6822 12.9243H38.2557C37.9844 14.1174 37.6958 15.3492 37.39 16.6198C37.0841 17.8904 36.7934 19.12 36.5177 20.3088C36.4114 20.5834 36.2608 20.8388 36.0719 21.0647C35.8863 21.2729 35.668 21.4496 35.4258 21.588C35.1102 21.7558 34.7555 21.8361 34.3985 21.8206H33.972C33.6029 21.8325 33.2366 21.7526 32.906 21.588C32.643 21.452 32.4032 21.2754 32.1952 21.0647C31.9771 20.8473 31.8018 20.5909 31.6784 20.3088L28.2734 6.59934C28.2541 6.52486 28.239 6.44937 28.2281 6.37322C28.2086 6.29475 28.1956 6.21479 28.1894 6.13417C28.1808 6.04373 28.1765 5.94682 28.1765 5.84345C28.1784 5.65155 28.2134 5.46142 28.2798 5.28137C28.3554 5.08372 28.4672 4.90187 28.6093 4.74514C28.7658 4.57407 28.9547 4.43573 29.165 4.33812C29.4091 4.23061 29.6737 4.17769 29.9403 4.18307C30.2739 4.16817 30.6032 4.26353 30.8772 4.45441C31.1013 4.61689 31.2921 4.82085 31.4393 5.05525C31.5945 5.32513 31.7078 5.61704 31.7753 5.92097L33.972 15.9737H34.3985C34.5579 15.2027 34.7301 14.3909 34.9154 13.5381C35.1006 12.6852 35.288 11.8238 35.4775 10.9538C35.667 10.0838 35.8565 9.22235 36.0461 8.36955C36.2356 7.51675 36.4165 6.70056 36.5888 5.92097C36.696 5.46632 36.9341 5.05305 37.2737 4.73222C37.5986 4.42212 38.0328 4.25266 38.4819 4.26059Z" fill="#0079B2"/>
<path d="M50.6992 17.0848V13.9579C50.682 13.2893 50.7893 12.6233 51.0158 11.9939C51.2014 11.4974 51.4774 11.0395 51.8299 10.6436C52.1443 10.2992 52.5187 10.0146 52.9347 9.80372C53.3182 9.61094 53.721 9.45934 54.1365 9.35148C54.4982 9.25409 54.868 9.18922 55.2413 9.15766C55.5816 9.13182 55.8487 9.1189 56.0425 9.1189C56.2363 9.1189 56.5012 9.13182 56.8372 9.15766C57.2 9.1883 57.5591 9.2532 57.9097 9.35148C58.3131 9.45828 58.7032 9.60998 59.0727 9.80372C59.4755 10.0147 59.835 10.2996 60.1324 10.6436C60.4691 11.0439 60.7317 11.5012 60.9077 11.9939C61.1207 12.6262 61.2213 13.2909 61.2049 13.9579V17.0848C61.2213 17.7519 61.1207 18.4166 60.9077 19.0489C60.7317 19.5415 60.4691 19.9988 60.1324 20.3991C59.8373 20.7455 59.4773 21.0308 59.0727 21.239C58.7025 21.4329 58.3126 21.5867 57.9097 21.6977C57.5585 21.792 57.1996 21.8547 56.8372 21.8851C56.5012 21.9109 56.2363 21.9239 56.0425 21.9239C55.8487 21.9239 55.5816 21.9109 55.2413 21.8851C54.8684 21.8538 54.4988 21.7911 54.1365 21.6977C53.7215 21.5856 53.3189 21.4319 52.9347 21.239C52.5168 21.0311 52.142 20.7461 51.8299 20.3991C51.4774 20.0032 51.2014 19.5454 51.0158 19.0489C50.7893 18.4195 50.682 17.7535 50.6992 17.0848ZM54.5823 13.4023V17.9635C54.5856 18.19 54.6455 18.4121 54.7567 18.6096C54.8612 18.7922 55.0101 18.9455 55.1896 19.0553C55.4497 19.1998 55.7455 19.2671 56.0425 19.2492C56.3271 19.2666 56.6104 19.1992 56.8566 19.0553C57.0305 18.9428 57.1746 18.7899 57.2766 18.6096C57.3798 18.409 57.4393 18.1888 57.451 17.9635V13.4023C57.4364 13.163 57.3773 12.9285 57.2766 12.711C57.1712 12.5261 57.0281 12.3654 56.8566 12.2394C56.6169 12.0783 56.3307 12.0011 56.0425 12.0197C55.7421 12.0005 55.4434 12.0775 55.1896 12.2394C55.0123 12.3628 54.8645 12.5238 54.7567 12.711C54.6481 12.9257 54.5885 13.1618 54.5823 13.4023Z" fill="#80D6FF"/>
<path d="M71.1808 11.1152C71.2039 11.3748 71.1727 11.6363 71.0893 11.8832C71.0059 12.1302 70.872 12.357 70.6962 12.5494C70.313 12.8721 69.8199 13.0341 69.32 13.0017C69.2339 13.0017 69.1132 13.0081 68.9582 13.0211C68.789 13.0369 68.6221 13.0715 68.4607 13.1244C68.2726 13.1812 68.0924 13.2615 67.9244 13.3635C67.7343 13.4746 67.5658 13.6191 67.4269 13.7899C67.2641 13.9932 67.1413 14.2256 67.0651 14.4747C66.9641 14.7964 66.9161 15.1325 66.9229 15.4696V19.0747C66.9233 19.4113 66.9061 19.7477 66.8712 20.0825C66.8394 20.3867 66.7518 20.6823 66.6128 20.9547C66.4771 21.2108 66.2766 21.4269 66.0313 21.5814C65.7201 21.755 65.3664 21.8378 65.0105 21.8204C64.6626 21.8393 64.3168 21.7562 64.0154 21.5814C63.7747 21.4274 63.5804 21.2107 63.4533 20.9547C63.3184 20.6812 63.2331 20.3859 63.2014 20.0825C63.1622 19.748 63.1428 19.4115 63.1432 19.0747V12.0197C63.1426 11.6764 63.1621 11.3334 63.2014 10.9924C63.2332 10.685 63.3184 10.3854 63.4533 10.1073C63.578 9.84967 63.7728 9.63245 64.0154 9.48063C64.3183 9.31013 64.6634 9.22945 65.0105 9.24805C65.3629 9.22562 65.7123 9.32608 65.999 9.53232C66.2332 9.724 66.4098 9.97664 66.5094 10.2624C66.6215 10.5827 66.6847 10.9181 66.6968 11.2573C66.714 11.6234 66.7226 11.9787 66.7226 12.3233H66.9229C67.0334 11.8811 67.1916 11.4522 67.3946 11.0441C67.5625 10.6933 67.7777 10.3673 68.0342 10.075C68.2476 9.82696 68.5036 9.6191 68.7902 9.46125C69.0375 9.32427 69.3151 9.251 69.5978 9.24805C69.8687 9.2403 70.139 9.27518 70.399 9.35142C70.5888 9.41581 70.7567 9.53221 70.8836 9.68737C71.0088 9.85921 71.0908 10.0586 71.1226 10.2688C71.1648 10.5489 71.1843 10.8319 71.1808 11.1152Z" fill="#80D6FF"/>
<path d="M83.5513 7.05797V18.9714C83.5513 19.3245 83.5405 19.6713 83.519 20.0115C83.499 20.3284 83.4224 20.6391 83.2928 20.9289C83.1665 21.1926 82.9698 21.4162 82.7242 21.575C82.4015 21.7558 82.034 21.8409 81.6646 21.8205C81.2886 21.8399 80.9142 21.7596 80.5792 21.5879C80.3406 21.4526 80.1421 21.2564 80.0041 21.0194C79.8771 20.8063 79.7978 20.5683 79.7715 20.3216C79.7442 20.116 79.7291 19.9089 79.7263 19.7014C79.6435 19.9591 79.5353 20.208 79.4032 20.4444C79.2636 20.7008 79.0824 20.9322 78.867 21.1292C78.635 21.3394 78.3683 21.5078 78.0787 21.6267C77.7356 21.7628 77.3687 21.8287 76.9997 21.8205C76.5297 21.819 76.063 21.7427 75.617 21.5944C75.1497 21.4397 74.7234 21.1813 74.3701 20.8385C73.9748 20.4475 73.6685 19.976 73.472 19.4559C73.2211 18.7874 73.1026 18.0764 73.1231 17.3627V13.706C73.1019 12.9879 73.2204 12.2726 73.472 11.5998C73.6674 11.0811 73.9739 10.6114 74.3701 10.2237C74.7248 9.88422 75.1508 9.62819 75.617 9.47424C76.063 9.32593 76.5297 9.2496 76.9997 9.24812C77.3681 9.24006 77.7346 9.30369 78.0787 9.43548C78.3688 9.55053 78.6358 9.71685 78.867 9.92648C79.0824 10.1235 79.2636 10.3549 79.4032 10.6113C79.5369 10.8514 79.6452 11.1047 79.7263 11.3672V7.05797C79.7263 6.69617 79.7435 6.34084 79.778 5.99196C79.8088 5.67191 79.894 5.35947 80.03 5.06809C80.1626 4.80636 80.3635 4.58536 80.6115 4.42849C80.9324 4.24924 81.2975 4.16415 81.6646 4.18299C82.0172 4.16632 82.3671 4.25155 82.6726 4.42849C82.9176 4.58685 83.1161 4.80762 83.2476 5.06809C83.3835 5.35947 83.4688 5.67191 83.4996 5.99196C83.534 6.34084 83.5513 6.69617 83.5513 7.05797ZM76.9997 13.9838V17.0332C76.9997 17.2614 77.0083 17.4833 77.0256 17.6986C77.0392 17.9033 77.0872 18.1043 77.1677 18.293C77.2357 18.4631 77.3527 18.6092 77.5037 18.7129C77.6837 18.8302 77.8965 18.8868 78.111 18.8745C78.3945 18.8868 78.6747 18.81 78.9122 18.6548C79.1372 18.4788 79.3057 18.2407 79.3968 17.97C79.5278 17.5966 79.6104 17.2079 79.6423 16.8135C79.6897 16.3483 79.7177 15.7927 79.7263 15.1467C79.7232 14.8439 79.6995 14.5417 79.6552 14.2422C79.6107 13.9129 79.5283 13.5899 79.4097 13.2795C79.302 12.9915 79.1347 12.7295 78.9187 12.5107C78.8127 12.4057 78.6865 12.3234 78.5476 12.269C78.4087 12.2145 78.2601 12.1891 78.111 12.1942C77.8965 12.1819 77.6837 12.2385 77.5037 12.3557C77.3551 12.4564 77.2385 12.5977 77.1677 12.7627C77.0867 12.9445 77.0386 13.1391 77.0256 13.3377C77.0083 13.5487 76.9997 13.7641 76.9997 13.9838Z" fill="#80D6FF"/>
<path d="M95.7982 4.2605C96.0237 4.25917 96.2474 4.30083 96.4573 4.38325C96.6608 4.4674 96.8487 4.58535 97.0129 4.73213C97.1812 4.88433 97.3231 5.06335 97.4329 5.2619C97.5526 5.4662 97.6377 5.68886 97.6849 5.92088L99.8558 15.9736H100.282C100.635 14.3369 100.997 12.6636 101.368 10.9537C101.738 9.2438 102.106 7.56619 102.473 5.92088C102.544 5.61723 102.659 5.3256 102.815 5.05516C102.962 4.82076 103.153 4.61679 103.377 4.45432C103.651 4.26228 103.98 4.16681 104.314 4.18297C104.581 4.1776 104.845 4.23052 105.089 4.33803C105.3 4.43564 105.488 4.57398 105.645 4.74505C105.787 4.90178 105.899 5.08362 105.974 5.28128C106.041 5.46133 106.076 5.65146 106.078 5.84336C106.078 5.94673 106.074 6.04363 106.065 6.13408C106.059 6.2147 106.046 6.29466 106.026 6.37313C106.009 6.45927 105.992 6.53464 105.974 6.59925L102.524 20.3087C102.402 20.5885 102.232 20.8444 102.02 21.0646C101.822 21.2751 101.591 21.4519 101.335 21.5879C101.01 21.7535 100.647 21.8336 100.282 21.8205H99.8558C99.4967 21.8353 99.1401 21.7551 98.822 21.5879C98.5767 21.4541 98.3577 21.2768 98.1759 21.0646C97.9925 20.8404 97.8523 20.5841 97.7624 20.3087L95.9985 12.9242H95.5721C95.3007 14.1173 95.0121 15.3491 94.7063 16.6197C94.4005 17.8903 94.1097 19.1199 93.8341 20.3087C93.7278 20.5833 93.5772 20.8387 93.3882 21.0646C93.2026 21.2728 92.9844 21.4496 92.7421 21.5879C92.4266 21.7557 92.0719 21.836 91.7148 21.8205H91.2884C90.9193 21.8324 90.5529 21.7525 90.2223 21.5879C89.9594 21.4519 89.7195 21.2753 89.5116 21.0646C89.2935 20.8472 89.1182 20.5908 88.9947 20.3087L85.5897 6.59925C85.5705 6.52476 85.5554 6.44928 85.5445 6.37313C85.525 6.29466 85.512 6.2147 85.5057 6.13408C85.4971 6.04363 85.4928 5.94673 85.4928 5.84336C85.4948 5.65146 85.5297 5.46133 85.5962 5.28128C85.6718 5.08362 85.7835 4.90178 85.9257 4.74505C86.0822 4.57398 86.271 4.43564 86.4813 4.33803C86.7254 4.23052 86.99 4.1776 87.2567 4.18297C87.5903 4.16808 87.9195 4.26344 88.1935 4.45432C88.4176 4.61679 88.6084 4.82076 88.7556 5.05516C88.9109 5.32504 89.0242 5.61695 89.0916 5.92088L91.2884 15.9736H91.7148C91.8742 15.2026 92.0465 14.3908 92.2317 13.538C92.4169 12.6852 92.6043 11.8237 92.7938 10.9537C92.9834 10.0837 93.1729 9.22226 93.3624 8.36946C93.5519 7.51666 93.7328 6.70046 93.9051 5.92088C94.0124 5.46623 94.2505 5.05295 94.59 4.73213C94.915 4.42203 95.3491 4.25256 95.7982 4.2605Z" fill="#0079B2"/>
<path d="M118.522 13.7318V18.9714C118.522 19.3189 118.503 19.6662 118.464 20.0115C118.435 20.3299 118.35 20.6407 118.212 20.9289C118.085 21.1926 117.889 21.4162 117.643 21.575C117.329 21.7539 116.97 21.839 116.609 21.8205C116.246 21.8395 115.885 21.7543 115.569 21.575C115.316 21.4173 115.111 21.1941 114.975 20.9289C114.832 20.6411 114.74 20.3307 114.703 20.0115C114.664 19.6662 114.645 19.3189 114.645 18.9714V14.0096C114.645 13.7899 114.636 13.5746 114.619 13.3635C114.606 13.165 114.558 12.9703 114.477 12.7885C114.406 12.6236 114.293 12.4808 114.148 12.3751C113.963 12.2626 113.749 12.2086 113.534 12.22C113.381 12.2145 113.229 12.2416 113.087 12.2996C112.946 12.3575 112.818 12.4449 112.713 12.5559C112.478 12.8188 112.308 13.1329 112.216 13.4734C112.084 13.9264 111.999 14.3919 111.964 14.8624C111.916 15.3922 111.893 15.965 111.893 16.5809V18.9714C111.893 19.3187 111.876 19.6659 111.841 20.0115C111.808 20.3299 111.721 20.6403 111.583 20.9289C111.449 21.1959 111.243 21.4198 110.988 21.575C110.665 21.7547 110.298 21.8398 109.928 21.8205C109.568 21.839 109.209 21.7539 108.895 21.575C108.649 21.4162 108.452 21.1926 108.326 20.9289C108.188 20.6407 108.103 20.3299 108.074 20.0115C108.035 19.6662 108.016 19.3189 108.016 18.9714V7.03212C108.016 6.68457 108.035 6.33729 108.074 5.99195C108.103 5.67353 108.188 5.3628 108.326 5.07455C108.452 4.81085 108.649 4.58725 108.895 4.42848C109.209 4.24961 109.568 4.16442 109.928 4.18298C110.298 4.16369 110.665 4.24877 110.988 4.42848C111.243 4.58365 111.449 4.80758 111.583 5.07455C111.721 5.36315 111.808 5.67353 111.841 5.99195C111.876 6.33758 111.893 6.68475 111.893 7.03212V11.3414C111.976 11.0828 112.086 10.8337 112.222 10.5984C112.367 10.3404 112.555 10.1089 112.778 9.91355C113.016 9.70503 113.287 9.53698 113.579 9.41608C113.918 9.28069 114.28 9.21478 114.645 9.22227C115.118 9.22421 115.587 9.30275 116.034 9.45485C116.502 9.61155 116.928 9.87219 117.281 10.2172C117.676 10.6138 117.982 11.0894 118.179 11.6127C118.425 12.2913 118.542 13.0102 118.522 13.7318Z" fill="#80D6FF"/>
<path d="M120.458 18.9972V12.0455C120.458 11.7001 120.477 11.355 120.516 11.0118C120.549 10.6975 120.636 10.3914 120.775 10.1073C120.908 9.84561 121.108 9.62461 121.356 9.46774C121.666 9.28879 122.02 9.2035 122.377 9.22224C122.734 9.20461 123.088 9.28982 123.398 9.46774C123.643 9.6261 123.842 9.84687 123.973 10.1073C124.115 10.3899 124.203 10.6968 124.232 11.0118C124.271 11.355 124.29 11.7001 124.29 12.0455V18.9972C124.29 19.3447 124.271 19.692 124.232 20.0373C124.204 20.3526 124.117 20.6597 123.973 20.9418C123.844 21.2039 123.645 21.4253 123.398 21.5814C123.087 21.755 122.733 21.8378 122.377 21.8205C122.021 21.8389 121.667 21.756 121.356 21.5814C121.107 21.4268 120.905 21.2052 120.775 20.9418C120.635 20.6582 120.548 20.3519 120.516 20.0373C120.477 19.692 120.458 19.3447 120.458 18.9972ZM124.316 6.0953C124.337 6.35832 124.303 6.62294 124.217 6.87216C124.13 7.12138 123.992 7.34971 123.812 7.54248C123.421 7.87635 122.916 8.04545 122.403 8.0141C121.888 8.04613 121.381 7.87705 120.988 7.54248C120.808 7.34971 120.67 7.12138 120.583 6.87216C120.496 6.62294 120.463 6.35832 120.484 6.0953C120.46 5.83009 120.492 5.56268 120.579 5.3109C120.666 5.05912 120.805 4.82877 120.988 4.6352C121.386 4.31242 121.891 4.15101 122.403 4.18295C122.924 4.14113 123.44 4.30328 123.844 4.6352C124.017 4.83402 124.148 5.06594 124.229 5.3169C124.311 5.56787 124.34 5.83268 124.316 6.0953Z" fill="#80D6FF"/>
<path d="M128.597 9.2222H133.585C133.842 9.2239 134.099 9.2455 134.354 9.28681C134.618 9.32512 134.875 9.40355 135.116 9.51939C135.346 9.62911 135.545 9.79321 135.698 9.99748C135.86 10.2274 135.941 10.5045 135.93 10.7857C135.93 10.9307 135.906 11.0747 135.859 11.2121C135.814 11.3602 135.757 11.5049 135.691 11.6449C135.622 11.7957 135.549 11.9421 135.471 12.0843C135.394 12.2264 135.321 12.3642 135.252 12.4977L130.865 18.6224H133.636C133.926 18.6222 134.215 18.6373 134.502 18.6676C134.763 18.6881 135.017 18.7583 135.252 18.8744C135.468 18.9831 135.651 19.1483 135.781 19.3525C135.927 19.6122 135.997 19.9078 135.982 20.2053C135.996 20.5026 135.926 20.7979 135.781 21.0581C135.652 21.266 135.469 21.4354 135.252 21.5491C135.017 21.6656 134.763 21.74 134.502 21.7687C134.215 21.8034 133.926 21.8206 133.636 21.8204H128.674C128.409 21.8197 128.143 21.8024 127.88 21.7687C127.614 21.7371 127.355 21.6652 127.111 21.5555C126.88 21.453 126.68 21.2928 126.529 21.0904C126.368 20.8529 126.289 20.5694 126.303 20.2828C126.306 19.9685 126.381 19.659 126.523 19.3783C126.662 19.0884 126.824 18.8097 127.007 18.5449L131.369 12.3944H128.597C128.304 12.3944 128.017 12.3814 127.737 12.3556C127.477 12.3298 127.223 12.2576 126.988 12.1424C126.771 12.0373 126.588 11.874 126.458 11.6708C126.307 11.4199 126.235 11.1296 126.251 10.8374C126.236 10.537 126.308 10.2385 126.458 9.9781C126.587 9.77121 126.77 9.60362 126.988 9.49355C127.223 9.37817 127.477 9.30388 127.737 9.27389C128.023 9.23912 128.31 9.22186 128.597 9.2222Z" fill="#80D6FF"/>
<path d="M12.1245 0.613526C12.3964 0.362559 12.6632 0.0122509 13.0711 0.0122509C13.5941 -0.0766332 13.9654 0.336417 14.3001 0.660582C17.1398 3.51533 19.99 6.34917 22.835 9.19346C23.2586 9.56468 23.562 10.2392 23.154 10.7306C22.4166 11.5986 21.5537 12.3462 20.764 13.1619C22.5108 14.9448 24.2993 16.6754 26.0409 18.4636C26.2408 18.6653 26.3529 18.9377 26.3529 19.2217C26.3529 19.5056 26.2408 19.7781 26.0409 19.9798C24.0849 21.9562 22.1029 23.9116 20.1417 25.888C20.0033 26.0661 19.8177 26.2017 19.6059 26.2794C19.3942 26.357 19.1648 26.3736 18.9441 26.3272C18.5272 26.0659 18.1366 25.7647 17.7779 25.4279C16.6706 24.5691 15.3446 24.038 13.9506 23.8947C12.5565 23.7515 11.1503 24.0019 9.8914 24.6175C9.09587 25.048 8.3564 25.5748 7.68967 26.186C7.44424 26.3346 7.1511 26.3833 6.87081 26.322C6.59051 26.2607 6.34447 26.0941 6.18351 25.8566C4.23804 23.9169 2.29781 21.998 0.378488 20.053C0.268953 19.9622 0.179091 19.8501 0.114397 19.7234C0.0497034 19.5967 0.0115388 19.4582 0.00223775 19.3163C-0.0070633 19.1743 0.0126947 19.032 0.0603032 18.898C0.107912 18.7639 0.18237 18.641 0.279123 18.5368C2.0154 16.7434 3.87196 15.0075 5.59255 13.1671C4.86038 12.409 4.09161 11.6927 3.36467 10.9293C3.25338 10.8312 3.16424 10.7105 3.10319 10.5753C3.04213 10.4401 3.01055 10.2934 3.01055 10.145C3.01055 9.99668 3.04213 9.85002 3.10319 9.7148C3.16424 9.57959 3.25338 9.4589 3.36467 9.36077C6.28985 6.45025 9.20979 3.5345 12.1245 0.613526ZM5.63438 10.1764C6.15736 10.6627 6.6385 11.1594 7.13009 11.6665C8.17604 10.6208 9.19061 9.57514 10.2366 8.56604C10.7833 8.04455 11.4588 7.67774 12.194 7.50318C12.9291 7.32862 13.6975 7.35259 14.4204 7.57263C15.7696 7.95954 16.7005 9.09412 17.6105 10.0823V10.2392C17.166 10.6993 16.7424 11.3737 16.1305 11.5567C15.2833 10.9398 14.7446 9.85748 13.6725 9.59605C13.2875 9.5082 12.8859 9.52702 12.5108 9.65048C12.1357 9.77393 11.8015 9.99735 11.544 10.2967C8.56304 13.2769 5.58557 16.2571 2.61159 19.2374C4.11776 20.7641 5.65007 22.2751 7.16147 23.8018C8.87641 22.4543 10.9944 21.7217 13.1757 21.7217C15.3569 21.7217 17.4749 22.4543 19.1899 23.8018L23.745 19.2426C22.2336 17.7368 20.7327 16.2205 19.2108 14.72C18.1649 15.7657 17.1189 16.8532 16.0364 17.8884C15.4005 18.4563 14.6108 18.8233 13.7668 18.9433C12.9227 19.0634 12.0619 18.931 11.293 18.5629C10.2156 18.04 9.49394 16.9944 8.63103 16.2049C9.154 15.682 9.6456 15.1905 10.1581 14.6886C11.0472 15.4572 11.727 16.712 13.0136 16.8427C13.9601 16.9473 14.708 16.2624 15.299 15.614C17.098 13.805 18.9023 12.0012 20.7117 10.2026C18.2642 7.61446 15.686 5.15707 13.1966 2.62649C10.6724 5.1257 8.15164 7.64235 5.63438 10.1764Z" fill="url(#paint0_linear_34_1467)"/>
<defs>
<linearGradient id="paint0_linear_34_1467" x1="0" y1="13.2028" x2="26.3529" y2="13.2028" gradientUnits="userSpaceOnUse">
<stop stop-color="#0079B2"/>
<stop offset="0.81" stop-color="#80D6FF"/>
</linearGradient>
</defs>
</svg>
