<svg width="41" height="41" viewBox="0 0 41 41" fill="none" xmlns="http://www.w3.org/2000/svg">
<path d="M17 24.5H20.75M20.75 24.5H24.5M20.75 24.5V28.25M20.75 24.5V20.75M39.5 20.3713C39.5 15.4363 39.5 12.9669 38.0562 11.3637C37.9238 11.2158 37.7836 11.0749 37.6363 10.9419C36.0331 9.5 33.5637 9.5 28.6287 9.5H27.9275C25.7656 9.5 24.6838 9.5 23.675 9.21313C23.1214 9.05488 22.5879 8.83342 22.085 8.55312C21.17 8.045 20.405 7.27812 18.875 5.75L17.8437 4.71875C17.33 4.205 17.075 3.95 16.805 3.725C15.6437 2.76245 14.2193 2.17239 12.7175 2.03187C12.3688 2 12.005 2 11.2812 2C9.62562 2 8.79875 2 8.10875 2.13125C6.6272 2.41104 5.26437 3.13088 4.19807 4.19685C3.13177 5.26281 2.41151 6.62541 2.13125 8.10687C2 8.79875 2 9.6275 2 11.2812M39.4831 28.25C39.4156 32.9 39.0706 35.5344 37.3025 37.3025C35.1069 39.5 31.5706 39.5 24.5 39.5H17C9.92938 39.5 6.39312 39.5 4.1975 37.3025C2 35.1069 2 31.5706 2 24.5V18.875" stroke="#0079B2" stroke-width="2.5" stroke-linecap="round"/>
</svg>
