<svg width="16" height="16" viewBox="0 0 16 16" fill="none" xmlns="http://www.w3.org/2000/svg">
<path fill-rule="evenodd" clip-rule="evenodd" d="M1.71429 0H9.71429C10.1689 0 10.605 0.180612 10.9265 0.502103C11.248 0.823594 11.4286 1.25963 11.4286 1.71429V4.57143C11.4286 4.87453 11.3082 5.16522 11.0938 5.37955C10.8795 5.59388 10.5888 5.71429 10.2857 5.71429H6.28571C6.13416 5.71429 5.98882 5.77449 5.88165 5.88165C5.77449 5.98882 5.71429 6.13416 5.71429 6.28571V10.2857C5.71429 10.5888 5.59388 10.8795 5.37955 11.0938C5.16522 11.3082 4.87453 11.4286 4.57143 11.4286H1.71429C1.25963 11.4286 0.823594 11.248 0.502103 10.9265C0.180612 10.605 0 10.1689 0 9.71429L0 1.71429C0 1.25963 0.180612 0.823594 0.502103 0.502103C0.823594 0.180612 1.25963 0 1.71429 0ZM14.2023 5.79771C14.1757 5.7712 14.1442 5.75018 14.1094 5.73587C14.0747 5.72155 14.0375 5.71422 14 5.71429C13.7727 5.71429 13.5547 5.62398 13.3939 5.46323C13.2332 5.30249 13.1429 5.08447 13.1429 4.85714C13.1429 4.62981 13.2332 4.4118 13.3939 4.25105C13.5547 4.09031 13.7727 4 14 4C14.5295 4.003 15.0365 4.21468 15.4109 4.5891C15.7853 4.96353 15.997 5.47049 16 6C16 6.22733 15.9097 6.44535 15.7489 6.60609C15.5882 6.76684 15.3702 6.85714 15.1429 6.85714C14.9155 6.85714 14.6975 6.76684 14.5368 6.60609C14.376 6.44535 14.2857 6.22733 14.2857 6C14.2858 5.96245 14.2784 5.92526 14.2641 5.89055C14.2498 5.85584 14.2288 5.8243 14.2023 5.79771ZM14.5406 13.3977C14.7005 13.2375 14.9166 13.1461 15.1429 13.1429C15.3693 13.1458 15.5856 13.2371 15.7457 13.3972C15.9058 13.5573 15.997 13.7736 16 14C15.997 14.5295 15.7853 15.0365 15.4109 15.4109C15.0365 15.7853 14.5295 15.997 14 16C13.7727 16 13.5547 15.9097 13.3939 15.7489C13.2332 15.5882 13.1429 15.3702 13.1429 15.1429C13.1429 14.9155 13.2332 14.6975 13.3939 14.5368C13.5547 14.376 13.7727 14.2857 14 14.2857C14.0758 14.2857 14.1484 14.2556 14.202 14.202C14.2556 14.1484 14.2857 14.0758 14.2857 14C14.289 13.7737 14.3804 13.5576 14.5406 13.3977ZM6 14.2857C5.92422 14.2857 5.85155 14.2556 5.79797 14.202C5.74439 14.1484 5.71429 14.0758 5.71429 14C5.71429 13.7727 5.62398 13.5547 5.46323 13.3939C5.30249 13.2332 5.08447 13.1429 4.85714 13.1429C4.62981 13.1429 4.4118 13.2332 4.25105 13.3939C4.09031 13.5547 4 13.7727 4 14C4.003 14.5295 4.21468 15.0365 4.5891 15.4109C4.96353 15.7853 5.47049 15.997 6 16C6.22733 16 6.44535 15.9097 6.60609 15.7489C6.76684 15.5882 6.85714 15.3702 6.85714 15.1429C6.85714 14.9155 6.76684 14.6975 6.60609 14.5368C6.44535 14.376 6.22733 14.2857 6 14.2857ZM9.14286 14.2857H10.8571C11.0845 14.2857 11.3025 14.376 11.4632 14.5368C11.624 14.6975 11.7143 14.9155 11.7143 15.1429C11.7143 15.3702 11.624 15.5882 11.4632 15.7489C11.3025 15.9097 11.0845 16 10.8571 16H9.14286C8.91553 16 8.69751 15.9097 8.53677 15.7489C8.37602 15.5882 8.28572 15.3702 8.28572 15.1429C8.28572 14.9155 8.37602 14.6975 8.53677 14.5368C8.69751 14.376 8.91553 14.2857 9.14286 14.2857ZM15.1429 8.28572C14.9164 8.28868 14.7001 8.37993 14.54 8.54004C14.3799 8.70015 14.2887 8.91645 14.2857 9.14286V10.8571C14.2857 11.0845 14.376 11.3025 14.5368 11.4632C14.6975 11.624 14.9155 11.7143 15.1429 11.7143C15.3702 11.7143 15.5882 11.624 15.7489 11.4632C15.9097 11.3025 16 11.0845 16 10.8571V9.14286C15.997 8.91645 15.9058 8.70015 15.7457 8.54004C15.5856 8.37993 15.3693 8.28868 15.1429 8.28572Z" fill="#0079B2"/>
</svg>
