<svg width="38" height="41" viewBox="0 0 38 41" fill="none" xmlns="http://www.w3.org/2000/svg">
<path d="M2 19.0587V28.4206C2 34.2256 2 37.13 3.37625 38.3975C4.0325 39.0031 4.86125 39.3838 5.74438 39.485C7.595 39.6969 9.75688 37.7844 14.0788 33.9612C15.9913 32.2719 16.9456 31.4263 18.05 31.205C18.5938 31.0925 19.1562 31.0925 19.7 31.205C20.8062 31.4263 21.7606 32.2719 23.6712 33.9612C27.9931 37.7844 30.155 39.6969 32.0056 39.4831C32.8869 39.3837 33.7175 39.0031 34.3738 38.3975C35.75 37.13 35.75 34.2275 35.75 28.4206V19.0569C35.75 11.0169 35.75 6.99687 33.2787 4.4975C30.8075 2 26.8288 2 18.875 2C10.9194 2 6.9425 2 4.47125 4.4975C2.95812 6.0275 2.37125 8.13125 2.14437 11.375M24.5 9.5H13.25" stroke="#0079B2" stroke-width="2.8125" stroke-linecap="round"/>
</svg>
