<svg width="34" height="38" viewBox="0 0 34 38" fill="none" xmlns="http://www.w3.org/2000/svg">
<path fill-rule="evenodd" clip-rule="evenodd" d="M33.75 17.0587V26.4206C33.75 32.2256 33.75 35.13 32.3738 36.3975C31.7175 37.0031 30.8888 37.3838 30.0056 37.485C28.155 37.6969 25.9931 35.7844 21.6712 31.9612C19.7587 30.2719 18.8044 29.4263 17.7 29.205C17.1555 29.0952 16.5945 29.0952 16.05 29.205C14.9438 29.4263 13.9894 30.2719 12.0788 31.9612C7.75688 35.7844 5.595 37.6969 3.74438 37.4831C2.85982 37.3816 2.03046 37.0014 1.37625 36.3975C-1.11759e-07 35.13 0 32.2275 0 26.4206V17.0569C0 9.01875 -2.23517e-07 4.99875 2.47125 2.49937C4.9425 0 8.92125 0 16.875 0C24.8306 0 28.8075 0 31.2787 2.4975C33.75 4.99687 33.75 9.01875 33.75 17.0587ZM9.84375 7.5C9.84375 7.12704 9.99191 6.76935 10.2556 6.50563C10.5194 6.24191 10.877 6.09375 11.25 6.09375H22.5C22.873 6.09375 23.2306 6.24191 23.4944 6.50563C23.7581 6.76935 23.9062 7.12704 23.9062 7.5C23.9062 7.87296 23.7581 8.23065 23.4944 8.49437C23.2306 8.75809 22.873 8.90625 22.5 8.90625H11.25C10.877 8.90625 10.5194 8.75809 10.2556 8.49437C9.99191 8.23065 9.84375 7.87296 9.84375 7.5Z" fill="#0079B2"/>
</svg>
