<svg width="41" height="40" viewBox="0 0 41 40" fill="none" xmlns="http://www.w3.org/2000/svg">
<path d="M24.5 38.5625H17C9.92938 38.5625 6.39312 38.5625 4.1975 36.365C2 34.1694 2 30.6331 2 23.5625V19.8125C2 12.7419 2 9.20562 4.1975 7.01C6.39312 4.8125 9.92938 4.8125 17 4.8125H24.5C31.5706 4.8125 35.1069 4.8125 37.3025 7.01C39.5 9.20562 39.5 12.7419 39.5 19.8125V23.5625C39.5 30.6331 39.5 34.1694 37.3025 36.365C36.0781 37.5912 34.4375 38.1331 32 38.3713M11.375 4.8125V2M30.125 4.8125V2M38.5625 14.1875H18.4062M2 14.1875H9.26562" stroke="#0079B2" stroke-width="2.8125" stroke-linecap="round"/>
<path d="M32 29.1875C32 29.6848 31.8025 30.1617 31.4508 30.5133C31.0992 30.865 30.6223 31.0625 30.125 31.0625C29.6277 31.0625 29.1508 30.865 28.7992 30.5133C28.4475 30.1617 28.25 29.6848 28.25 29.1875C28.25 28.6902 28.4475 28.2133 28.7992 27.8617C29.1508 27.51 29.6277 27.3125 30.125 27.3125C30.6223 27.3125 31.0992 27.51 31.4508 27.8617C31.8025 28.2133 32 28.6902 32 29.1875ZM32 21.6875C32 22.1848 31.8025 22.6617 31.4508 23.0133C31.0992 23.365 30.6223 23.5625 30.125 23.5625C29.6277 23.5625 29.1508 23.365 28.7992 23.0133C28.4475 22.6617 28.25 22.1848 28.25 21.6875C28.25 21.1902 28.4475 20.7133 28.7992 20.3617C29.1508 20.01 29.6277 19.8125 30.125 19.8125C30.6223 19.8125 31.0992 20.01 31.4508 20.3617C31.8025 20.7133 32 21.1902 32 21.6875ZM22.625 29.1875C22.625 29.6848 22.4275 30.1617 22.0758 30.5133C21.7242 30.865 21.2473 31.0625 20.75 31.0625C20.2527 31.0625 19.7758 30.865 19.4242 30.5133C19.0725 30.1617 18.875 29.6848 18.875 29.1875C18.875 28.6902 19.0725 28.2133 19.4242 27.8617C19.7758 27.51 20.2527 27.3125 20.75 27.3125C21.2473 27.3125 21.7242 27.51 22.0758 27.8617C22.4275 28.2133 22.625 28.6902 22.625 29.1875ZM22.625 21.6875C22.625 22.1848 22.4275 22.6617 22.0758 23.0133C21.7242 23.365 21.2473 23.5625 20.75 23.5625C20.2527 23.5625 19.7758 23.365 19.4242 23.0133C19.0725 22.6617 18.875 22.1848 18.875 21.6875C18.875 21.1902 19.0725 20.7133 19.4242 20.3617C19.7758 20.01 20.2527 19.8125 20.75 19.8125C21.2473 19.8125 21.7242 20.01 22.0758 20.3617C22.4275 20.7133 22.625 21.1902 22.625 21.6875ZM13.25 29.1875C13.25 29.6848 13.0525 30.1617 12.7008 30.5133C12.3492 30.865 11.8723 31.0625 11.375 31.0625C10.8777 31.0625 10.4008 30.865 10.0492 30.5133C9.69754 30.1617 9.5 29.6848 9.5 29.1875C9.5 28.6902 9.69754 28.2133 10.0492 27.8617C10.4008 27.51 10.8777 27.3125 11.375 27.3125C11.8723 27.3125 12.3492 27.51 12.7008 27.8617C13.0525 28.2133 13.25 28.6902 13.25 29.1875ZM13.25 21.6875C13.25 22.1848 13.0525 22.6617 12.7008 23.0133C12.3492 23.365 11.8723 23.5625 11.375 23.5625C10.8777 23.5625 10.4008 23.365 10.0492 23.0133C9.69754 22.6617 9.5 22.1848 9.5 21.6875C9.5 21.1902 9.69754 20.7133 10.0492 20.3617C10.4008 20.01 10.8777 19.8125 11.375 19.8125C11.8723 19.8125 12.3492 20.01 12.7008 20.3617C13.0525 20.7133 13.25 21.1902 13.25 21.6875Z" fill="#0079B2"/>
</svg>
