<svg width="40" height="41" viewBox="0 0 40 41" fill="none" xmlns="http://www.w3.org/2000/svg">
<path d="M20.0819 16.75L29.1381 19.1762M18.625 22.1837L24.0587 23.6387M36.085 21.7131C34.9506 25.9412 34.3844 28.0562 33.1 29.4269C32.0865 30.5091 30.775 31.2666 29.3312 31.6037C29.1494 31.6469 28.9656 31.6787 28.7781 31.7012C27.0625 31.9131 24.9681 31.3525 21.1581 30.3325C16.93 29.1981 14.815 28.6319 13.4444 27.3475C12.3619 26.3335 11.6043 25.0213 11.2675 23.5769C10.84 21.7469 11.4062 19.6337 12.5406 15.4056L13.51 11.7831L13.9675 10.0862C14.8206 6.96249 15.3944 5.24311 16.495 4.06749C17.5087 2.98599 18.8202 2.22913 20.2637 1.89249C22.0937 1.46499 24.2087 2.03124 28.4387 3.16561C32.665 4.29811 34.78 4.86436 36.1506 6.14686C37.2334 7.16134 37.991 8.47421 38.3275 9.91936C38.6294 11.2131 38.4344 12.6494 37.8944 14.875" stroke="#0079B2" stroke-width="2.8125" stroke-linecap="round"/>
<path d="M4.135 29.2131C5.2675 33.4412 5.83563 35.5562 7.12 36.9269C8.13347 38.009 9.44495 38.7666 10.8888 39.1037C12.7188 39.5294 14.8338 38.9631 19.0638 37.8306C23.29 36.6981 25.405 36.1319 26.7756 34.8475C27.6974 33.9841 28.3862 32.9019 28.7781 31.7012M13.9675 10.0844C13.3075 10.255 12.5819 10.45 11.7831 10.6656C7.555 11.7981 5.44 12.3644 4.06938 13.6469C2.98655 14.6613 2.22898 15.9742 1.8925 17.4194C1.59063 18.7131 1.78563 20.1494 2.32563 22.375" stroke="#0079B2" stroke-width="2.8125" stroke-linecap="round" stroke-linejoin="round"/>
</svg>
