<svg width="17" height="17" viewBox="0 0 17 17" fill="none" xmlns="http://www.w3.org/2000/svg">
<path d="M15.4874 0.274924L8.50588 7.25639L1.52442 0.274924C1.3565 0.121267 1.13578 0.0383198 0.908227 0.0433617C0.680674 0.0484036 0.46384 0.141046 0.302897 0.30199C0.141953 0.462934 0.04931 0.679767 0.0442681 0.90732C0.0392262 1.13487 0.122174 1.3556 0.275831 1.52351L7.25376 8.50498L0.27406 15.4847C0.188788 15.5659 0.120623 15.6634 0.0735698 15.7714C0.026517 15.8794 0.00152652 15.9957 6.77751e-05 16.1135C-0.00139097 16.2313 0.0207114 16.3482 0.0650753 16.4573C0.109439 16.5664 0.175169 16.6655 0.258402 16.7489C0.341635 16.8322 0.440691 16.8981 0.549747 16.9426C0.658803 16.9872 0.775659 17.0094 0.893444 17.0081C1.01123 17.0068 1.12757 16.982 1.23562 16.9351C1.34368 16.8882 1.44126 16.8202 1.52265 16.735L8.50588 9.75534L15.4874 16.7368C15.6553 16.8905 15.876 16.9734 16.1035 16.9684C16.3311 16.9633 16.5479 16.8707 16.7089 16.7097C16.8698 16.5488 16.9625 16.332 16.9675 16.1044C16.9725 15.8769 16.8896 15.6561 16.7359 15.4882L9.75447 8.50675L16.7359 1.52351C16.8212 1.44225 16.8894 1.34476 16.9364 1.23677C16.9835 1.12878 17.0085 1.01248 17.0099 0.894697C17.0114 0.776913 16.9893 0.660026 16.9449 0.550907C16.9006 0.441788 16.8348 0.342639 16.7516 0.259288C16.6684 0.175937 16.5693 0.110066 16.4603 0.0655476C16.3512 0.021029 16.2343 -0.00123864 16.1166 5.31497e-05C15.9988 0.00134494 15.8824 0.0261703 15.7744 0.07307C15.6663 0.11997 15.5687 0.187997 15.4874 0.273153V0.274924Z" fill="#0079B2"/>
</svg>
