<svg width="17" height="16" viewBox="0 0 17 16" fill="none" xmlns="http://www.w3.org/2000/svg">
<path d="M7.82089 4.48443C8.01911 4.48443 8.20922 4.40568 8.34938 4.26552C8.48955 4.12535 8.56829 3.93525 8.56829 3.73702C8.56829 3.5388 8.48955 3.34869 8.34938 3.20853C8.20922 3.06836 8.01911 2.98962 7.82089 2.98962C7.62266 2.98962 7.43256 3.06836 7.29239 3.20853C7.15223 3.34869 7.07348 3.5388 7.07348 3.73702C7.07348 3.93525 7.15223 4.12535 7.29239 4.26552C7.43256 4.40568 7.62266 4.48443 7.82089 4.48443ZM10.8105 5.48097C11.0087 5.48097 11.1988 5.40223 11.339 5.26206C11.4792 5.12189 11.5579 4.93179 11.5579 4.73356C11.5579 4.53534 11.4792 4.34523 11.339 4.20507C11.1988 4.0649 11.0087 3.98616 10.8105 3.98616C10.6123 3.98616 10.4222 4.0649 10.282 4.20507C10.1419 4.34523 10.0631 4.53534 10.0631 4.73356C10.0631 4.93179 10.1419 5.12189 10.282 5.26206C10.4222 5.40223 10.6123 5.48097 10.8105 5.48097ZM13.3019 6.97578C13.3019 7.17401 13.2231 7.36411 13.083 7.50428C12.9428 7.64444 12.7527 7.72319 12.5545 7.72319C12.3562 7.72319 12.1661 7.64444 12.026 7.50428C11.8858 7.36411 11.8071 7.17401 11.8071 6.97578C11.8071 6.77756 11.8858 6.58745 12.026 6.44729C12.1661 6.30712 12.3562 6.22838 12.5545 6.22838C12.7527 6.22838 12.9428 6.30712 13.083 6.44729C13.2231 6.58745 13.3019 6.77756 13.3019 6.97578ZM12.5545 10.7128C12.7527 10.7128 12.9428 10.6341 13.083 10.4939C13.2231 10.3537 13.3019 10.1636 13.3019 9.96541C13.3019 9.76718 13.2231 9.57708 13.083 9.43691C12.9428 9.29675 12.7527 9.218 12.5545 9.218C12.3562 9.218 12.1661 9.29675 12.026 9.43691C11.8858 9.57708 11.8071 9.76718 11.8071 9.96541C11.8071 10.1636 11.8858 10.3537 12.026 10.4939C12.1661 10.6341 12.3562 10.7128 12.5545 10.7128ZM11.3088 11.9585C11.3088 12.0566 11.2894 12.1538 11.2519 12.2445C11.2143 12.3352 11.1593 12.4176 11.0899 12.487C11.0205 12.5564 10.9381 12.6114 10.8474 12.649C10.7567 12.6866 10.6595 12.7059 10.5614 12.7059C10.4632 12.7059 10.366 12.6866 10.2754 12.649C10.1847 12.6114 10.1023 12.5564 10.0329 12.487C9.96348 12.4176 9.90842 12.3352 9.87086 12.2445C9.8333 12.1538 9.81397 12.0566 9.81397 11.9585C9.81397 11.7603 9.89271 11.5702 10.0329 11.43C10.173 11.2898 10.3632 11.2111 10.5614 11.2111C10.7596 11.2111 10.9497 11.2898 11.0899 11.43C11.23 11.5702 11.3088 11.7603 11.3088 11.9585ZM11.7542 0.98856C9.00976 -0.421546 6.21944 -0.287014 3.85465 1.16196C2.64883 1.90139 1.34635 3.45699 0.611904 5.04149C0.243183 5.83873 -0.00296269 6.6818 2.6934e-05 7.46708C0.0040131 8.26531 0.2671 9.02766 0.934783 9.57177C1.54267 10.0681 2.07283 10.3172 2.58506 10.3421C3.10126 10.368 3.50387 10.1587 3.81877 9.97338L4.01509 9.85479C4.25626 9.7083 4.45457 9.58772 4.70271 9.50999C4.98174 9.4203 5.3375 9.38841 5.85371 9.54586C6.04306 9.60366 6.15865 9.68937 6.23838 9.78902C6.32408 9.89465 6.39284 10.0421 6.44367 10.2534C6.49549 10.4657 6.52339 10.7158 6.54332 11.0108C6.55229 11.1204 6.55927 11.247 6.56624 11.3785C6.5782 11.5698 6.58916 11.7741 6.60511 11.9625C6.65892 12.6302 6.77452 13.3935 7.17712 14.0871C7.58969 14.7976 8.27332 15.3856 9.3725 15.7613C10.969 16.3074 12.4279 15.8639 13.564 14.9641C14.6861 14.0761 15.5132 12.7318 15.9268 11.3875C17.2372 7.12925 15.7165 3.0235 11.7542 0.98856ZM4.37485 2.01201C6.4327 0.751383 8.85131 0.61685 11.2988 1.87449C14.7937 3.67025 16.155 7.25581 14.9741 11.0945C14.6093 12.2804 13.8838 13.4403 12.9451 14.1838C12.0193 14.9162 10.9092 15.2331 9.69538 14.8186C8.79451 14.5096 8.31617 14.0642 8.03813 13.5868C7.75113 13.0916 7.64948 12.5126 7.59766 11.8808C7.58271 11.6924 7.57275 11.522 7.56278 11.3486L7.53787 10.94C7.52002 10.63 7.47804 10.3218 7.4123 10.0182C7.34333 9.70696 7.20729 9.41449 7.01369 9.1612C6.78841 8.88803 6.48531 8.68991 6.1447 8.59317C5.44513 8.37891 4.88408 8.40682 4.40076 8.55929C4.02705 8.67887 3.70517 8.87519 3.45803 9.02766L3.31253 9.11436C3.02852 9.28278 2.84216 9.35752 2.63488 9.34755C2.42262 9.33759 2.09376 9.22996 1.5646 8.79945C1.18093 8.48654 0.999558 8.03909 0.996569 7.46409C0.994576 6.87513 1.18193 6.18054 1.51577 5.46104C2.18744 4.01306 3.37033 2.62687 4.37485 2.01201Z" fill="#0079B2"/>
</svg>
