<svg width="37" height="11" viewBox="0 0 37 11" fill="none" xmlns="http://www.w3.org/2000/svg">
<path d="M5.75 9.5C6.49168 9.5 7.2167 9.28007 7.83339 8.86801C8.45007 8.45596 8.93072 7.87029 9.21455 7.18506C9.49838 6.49984 9.57264 5.74584 9.42795 5.01841C9.28325 4.29098 8.9261 3.6228 8.40165 3.09835C7.8772 2.57391 7.20902 2.21675 6.48159 2.07206C5.75416 1.92736 5.00016 2.00162 4.31494 2.28545C3.62971 2.56928 3.04404 3.04993 2.63199 3.66661C2.21993 4.2833 2 5.00832 2 5.75" stroke="#0079B2" stroke-width="2.5" stroke-linecap="round"/>
<path d="M18.875 9.5C20.9461 9.5 22.625 7.82107 22.625 5.75C22.625 3.67893 20.9461 2 18.875 2C16.8039 2 15.125 3.67893 15.125 5.75C15.125 7.82107 16.8039 9.5 18.875 9.5Z" stroke="#0079B2" stroke-width="2.5"/>
<path d="M35.75 5.75C35.75 6.49168 35.5301 7.2167 35.118 7.83339C34.706 8.45007 34.1203 8.93072 33.4351 9.21455C32.7498 9.49838 31.9958 9.57264 31.2684 9.42795C30.541 9.28325 29.8728 8.9261 29.3484 8.40165C28.8239 7.8772 28.4668 7.20902 28.3221 6.48159C28.1774 5.75416 28.2516 5.00016 28.5355 4.31494C28.8193 3.62971 29.2999 3.04404 29.9166 2.63199C30.5333 2.21993 31.2583 2 32 2" stroke="#0079B2" stroke-width="2.5" stroke-linecap="round"/>
</svg>
