<svg width="35" height="35" viewBox="0 0 35 35" fill="none" xmlns="http://www.w3.org/2000/svg">
<path d="M2 17.4997C2 24.8062 2 28.4595 4.26913 30.7286C6.54136 32.9993 10.193 32.9993 17.4995 32.9993C24.806 32.9993 28.4592 32.9993 30.7284 30.7286C32.999 28.461 32.999 24.8062 32.999 17.4997V15.1748M19.8244 2.00023H17.4995C10.193 2.00023 6.53981 2.00023 4.26913 4.26936C2.76103 5.77901 2.25419 7.9009 2.08525 11.2999" stroke="#0079B2" stroke-width="2.8125" stroke-linecap="round"/>
<path d="M24.7099 4.25537L25.7159 3.24945C26.5162 2.44929 27.6016 1.99985 28.7334 2C29.8651 2.00015 30.9504 2.44986 31.7506 3.25022C32.5507 4.05058 33.0002 5.13602 33 6.26775C32.9999 7.39949 32.5502 8.48481 31.7498 9.28496L30.7423 10.2909C30.7423 10.2909 28.6065 10.1653 26.7218 8.27904C24.8355 6.3943 24.7099 4.25692 24.7099 4.25692L15.4645 13.5008C14.8383 14.127 14.5252 14.4401 14.2555 14.7857C13.9378 15.1918 13.6665 15.6336 13.4433 16.1001C13.2558 16.4953 13.1163 16.9154 12.8358 17.7554L11.9383 20.4446M11.9383 20.4446L11.3586 22.1837C11.2905 22.3865 11.2802 22.6043 11.3291 22.8126C11.3779 23.0209 11.4839 23.2115 11.6351 23.3629C11.7863 23.5143 11.9768 23.6205 12.1851 23.6695C12.3933 23.7186 12.6112 23.7086 12.8141 23.6406L14.5546 23.0609M11.9383 20.4446L14.5546 23.0609M30.7439 10.2893L26.1204 14.9113M21.4984 19.5348C20.8723 20.161 20.5592 20.4741 20.2135 20.7438C19.8062 21.0614 19.3655 21.3337 18.8992 21.5559C18.5039 21.7435 18.0839 21.883 17.2438 22.1635L14.5546 23.0609" stroke="#0079B2" stroke-width="2.8125" stroke-linecap="round"/>
</svg>
