<svg width="41" height="21" viewBox="0 0 41 21" fill="none" xmlns="http://www.w3.org/2000/svg">
<path d="M2.70078 0.853906C2.55408 0.510782 2.27709 0.239987 1.93073 0.101093C1.58438 -0.037801 1.19703 -0.0334167 0.853906 0.113281C0.510782 0.259979 0.239987 0.536974 0.101093 0.88333C-0.0378009 1.22969 -0.0334169 1.61703 0.113281 1.96016L2.70078 0.853906ZM40.1989 1.96016C40.3298 1.62047 40.3239 1.24325 40.1825 0.907821C40.041 0.572394 39.7749 0.304907 39.4403 0.16162C39.1056 0.0183323 38.7284 0.0104107 38.388 0.139522C38.0476 0.268633 37.7706 0.524715 37.6152 0.853906L40.1989 1.96016ZM20.157 13.1277C14.112 13.1277 9.77141 10.1183 6.89141 7.01516C5.6815 5.70533 4.61193 4.27253 3.70016 2.74016C3.35633 2.16375 3.03912 1.57188 2.74953 0.966406C2.73557 0.935876 2.72182 0.905251 2.70828 0.874531L2.70078 0.853906H2.69891L1.40703 1.40703C0.97487 1.5899 0.543615 1.77303 0.113281 1.96016L0.115156 1.96203L0.117031 1.96766L0.122656 1.97891C0.146962 2.03422 0.171964 2.08922 0.197656 2.14391C0.528397 2.83793 0.89129 3.51616 1.28516 4.17641C2.05391 5.47016 3.22391 7.19516 4.82891 8.92578C8.04453 12.3852 13.077 15.9383 20.157 15.9383V13.1277ZM26.3689 11.9652C24.5502 12.6833 22.4858 13.1277 20.157 13.1277V15.9402C22.8533 15.9402 25.2664 15.4227 27.3983 14.5845L26.3689 11.9652ZM38.907 1.40703L37.6133 0.852031L37.6152 0.853906L37.602 0.880156C37.5119 1.0778 37.4175 1.27348 37.3189 1.46703C36.0374 3.95021 34.3476 6.20031 32.3202 8.12328L34.2439 10.1745C36.6582 7.88449 38.641 5.17893 40.0977 2.18703L40.1708 2.02766L40.1895 1.98266L40.197 1.96953V1.96391L40.1989 1.96016L38.907 1.40703ZM32.3202 8.12328C30.7077 9.63453 28.7333 11.0333 26.3689 11.9652L27.3983 14.5845C30.1602 13.497 32.4327 11.8752 34.2439 10.1745L32.3202 8.12328Z" fill="#0079B2"/>
<path opacity="0.5" d="M21.5633 14.532C21.5633 14.1591 21.4151 13.8014 21.1514 13.5377C20.8877 13.2739 20.53 13.1258 20.157 13.1258C19.7841 13.1258 19.4264 13.2739 19.1627 13.5377C18.8989 13.8014 18.7508 14.1591 18.7508 14.532H21.5633ZM28.062 12.507C27.9631 12.3484 27.8335 12.2111 27.6809 12.1032C27.5283 11.9952 27.3556 11.9188 27.1731 11.8784C26.9906 11.8379 26.8019 11.8343 26.6179 11.8676C26.434 11.901 26.2586 11.9707 26.1019 12.0727C25.9452 12.1746 25.8104 12.3068 25.7054 12.4615C25.6004 12.6161 25.5273 12.7902 25.4904 12.9734C25.4534 13.1567 25.4534 13.3455 25.4903 13.5287C25.5272 13.712 25.6002 13.8861 25.7052 14.0408L28.062 12.507ZM14.6089 14.0408C14.8038 13.7283 14.8684 13.3518 14.7887 12.9923C14.709 12.6327 14.4915 12.3187 14.1828 12.1178C13.8741 11.917 13.4989 11.8452 13.1379 11.918C12.7769 11.9908 12.4588 12.2023 12.252 12.507L14.6089 14.0408ZM9.60265 16.5777C9.39926 16.8904 9.32846 17.2712 9.40582 17.6362C9.48318 18.0012 9.70236 18.3205 10.0152 18.5239C10.3279 18.7273 10.7087 18.7981 11.0737 18.7207C11.4387 18.6434 11.758 18.4242 11.9614 18.1114L9.60265 16.5777ZM34.2777 8.15516C34.148 8.02078 33.9929 7.91358 33.8213 7.8398C33.6498 7.76602 33.4653 7.72714 33.2786 7.72543C33.0919 7.72372 32.9067 7.75921 32.7338 7.82984C32.561 7.90047 32.4039 8.00481 32.2718 8.13679C32.1397 8.26876 32.0352 8.42572 31.9644 8.59851C31.8936 8.7713 31.858 8.95645 31.8595 9.14318C31.861 9.3299 31.8997 9.51444 31.9734 9.68604C32.047 9.85765 32.154 10.0129 32.2883 10.1427L34.2777 8.15516ZM35.1008 12.9552C35.2295 13.0933 35.3848 13.2041 35.5573 13.281C35.7298 13.3579 35.916 13.3992 36.1048 13.4025C36.2936 13.4058 36.4812 13.3711 36.6563 13.3004C36.8314 13.2297 36.9904 13.1244 37.124 12.9909C37.2575 12.8573 37.3628 12.6983 37.4335 12.5232C37.5042 12.348 37.539 12.1605 37.5356 11.9717C37.5323 11.7829 37.491 11.5966 37.4141 11.4241C37.3373 11.2516 37.2264 11.0964 37.0883 10.9677L35.1008 12.9552ZM18.7508 19.2195C18.7508 19.5925 18.8989 19.9502 19.1627 20.2139C19.4264 20.4776 19.7841 20.6258 20.157 20.6258C20.53 20.6258 20.8877 20.4776 21.1514 20.2139C21.4151 19.9502 21.5633 19.5925 21.5633 19.2195H18.7508ZM28.3527 18.1133C28.4535 18.2682 28.5838 18.4017 28.7363 18.5062C28.8887 18.6107 29.0602 18.6841 29.241 18.7223C29.4218 18.7606 29.6084 18.7628 29.7901 18.7289C29.9717 18.695 30.145 18.6257 30.2998 18.5248C30.4547 18.424 30.5882 18.2937 30.6927 18.1412C30.7972 17.9888 30.8707 17.8173 30.9089 17.6365C30.9471 17.4557 30.9493 17.2691 30.9155 17.0874C30.8816 16.9058 30.8122 16.7325 30.7114 16.5777L28.3527 18.1133ZM8.02765 10.1445C8.15828 10.0139 8.26189 9.85883 8.33259 9.68816C8.40328 9.5175 8.43967 9.33457 8.43967 9.14984C8.43967 8.96511 8.40328 8.78219 8.33259 8.61152C8.26189 8.44085 8.15828 8.28578 8.02765 8.15516C7.89703 8.02453 7.74195 7.92091 7.57128 7.85022C7.40062 7.77953 7.2177 7.74314 7.03296 7.74314C6.84823 7.74314 6.66531 7.77953 6.49464 7.85022C6.32397 7.92091 6.1689 8.02453 6.03828 8.15516L8.02765 10.1445ZM3.22578 10.9677C3.08761 11.0964 2.9768 11.2516 2.89994 11.4241C2.82308 11.5966 2.78175 11.7829 2.77842 11.9717C2.77509 12.1605 2.80982 12.348 2.88055 12.5232C2.95127 12.6983 3.05654 12.8573 3.19008 12.9909C3.32361 13.1244 3.48268 13.2297 3.65778 13.3004C3.83288 13.3711 4.02044 13.4058 4.20926 13.4025C4.39807 13.3992 4.58429 13.3579 4.75679 13.281C4.92928 13.2041 5.08454 13.0933 5.21328 12.9552L3.22578 10.9677ZM12.252 12.5052L9.60265 16.5777L11.9614 18.1114L14.6089 14.0408L12.252 12.5052ZM32.2883 10.1427L35.1008 12.9552L37.0883 10.9677L34.2777 8.15516L32.2883 10.1427ZM18.7508 14.532V19.2195H21.5633V14.532H18.7508ZM25.7052 14.0408L28.3527 18.1133L30.7114 16.5777L28.062 12.507L25.7052 14.0408ZM6.0364 8.15328L3.2239 10.9658L5.21328 12.9552L8.02765 10.1445L6.0364 8.15328Z" fill="#0079B2"/>
</svg>
