<svg width="41" height="34" viewBox="0 0 41 34" fill="none" xmlns="http://www.w3.org/2000/svg">
<path d="M15.125 2.86257C16.9441 2.28589 18.8417 1.99493 20.75 2.00007C28.5913 2.00007 33.9275 6.68757 37.1094 10.8201C38.7031 12.8938 39.5 13.9269 39.5 17.0001C39.5 20.0751 38.7031 21.1082 37.1094 23.1801C33.9275 27.3126 28.5913 32.0001 20.75 32.0001C12.9087 32.0001 7.5725 27.3126 4.39063 23.1801C2.79688 21.1101 2 20.0732 2 17.0001C2 13.9251 2.79688 12.8919 4.39063 10.8201C5.36255 9.55014 6.4449 8.36866 7.625 7.28944" stroke="#0079B2" stroke-width="2.8125" stroke-linecap="round"/>
<path d="M26.375 17.0001C26.375 18.4919 25.7824 19.9226 24.7275 20.9775C23.6726 22.0324 22.2418 22.6251 20.75 22.6251C19.2582 22.6251 17.8274 22.0324 16.7725 20.9775C15.7176 19.9226 15.125 18.4919 15.125 17.0001C15.125 15.5082 15.7176 14.0775 16.7725 13.0226C17.8274 11.9677 19.2582 11.3751 20.75 11.3751C22.2418 11.3751 23.6726 11.9677 24.7275 13.0226C25.7824 14.0775 26.375 15.5082 26.375 17.0001Z" stroke="#0079B2" stroke-width="2.8125"/>
</svg>
