<svg width="18" height="18" viewBox="0 0 18 18" fill="none" xmlns="http://www.w3.org/2000/svg">
<path d="M13.8 7.4H9.8M17 8.8384C17 6.7328 17 5.6792 16.384 4.9952C16.3275 4.93206 16.2677 4.87198 16.2048 4.8152C15.5208 4.2 14.4672 4.2 12.3616 4.2H12.0624C11.14 4.2 10.6784 4.2 10.248 4.0776C10.0118 4.01008 9.78418 3.91559 9.5696 3.796C9.1792 3.5792 8.8528 3.252 8.2 2.6L7.76 2.16C7.5408 1.9408 7.432 1.832 7.3168 1.736C6.82133 1.32531 6.21355 1.07356 5.5728 1.0136C5.424 1 5.2688 1 4.96 1C4.2536 1 3.9008 1 3.6064 1.056C2.97427 1.17538 2.3928 1.48251 1.93784 1.93732C1.48289 2.39213 1.17558 2.97351 1.056 3.6056C1 3.9008 1 4.2544 1 4.96M16.9928 12.2C16.964 14.184 16.8168 15.308 16.0624 16.0624C15.1256 17 13.6168 17 10.6 17H7.4C4.3832 17 2.8744 17 1.9376 16.0624C1 15.1256 1 13.6168 1 10.6V8.2" stroke="#0079B2" stroke-linecap="round"/>
</svg>
