<svg width="18" height="18" viewBox="0 0 18 18" fill="none" xmlns="http://www.w3.org/2000/svg">
<path d="M12.0769 5.92308V2.23077C12.0769 1.56 11.5169 1 10.8462 1H2.23077C1.56 1 1 1.56 1 2.23077V10.8462C1 11.5169 1.56 12.0769 2.23077 12.0769H5.92308M17 15.7692C17 16.0957 16.8703 16.4087 16.6395 16.6395C16.4087 16.8703 16.0957 17 15.7692 17" stroke="#0079B2" stroke-linecap="round" stroke-linejoin="round"/>
<path d="M5.92303 7.1538C5.92303 6.82738 6.0527 6.51433 6.28352 6.28352C6.51433 6.0527 6.82738 5.92303 7.1538 5.92303M15.7692 5.92303C16.0956 5.92303 16.4087 6.0527 16.6395 6.28352C16.8703 6.51433 17 6.82738 17 7.1538M5.92303 15.7692C5.92303 16.0956 6.0527 16.4087 6.28352 16.6395C6.51433 16.8703 6.82738 17 7.1538 17M17 10.2307V12.6923M5.92303 12.6923V10.2307M10.2307 5.92303H12.6923M10.2307 17H12.6923" stroke="#0079B2" stroke-linecap="round" stroke-linejoin="round"/>
</svg>
