<svg width="41" height="41" viewBox="0 0 41 41" fill="none" xmlns="http://www.w3.org/2000/svg">
<path d="M28.25 17C30.3211 17 32 15.3211 32 13.25C32 11.1789 30.3211 9.5 28.25 9.5C26.1789 9.5 24.5 11.1789 24.5 13.25C24.5 15.3211 26.1789 17 28.25 17Z" stroke="#0079B2" stroke-width="2.8125"/>
<path d="M7.625 23.2006L9.14375 21.7888C9.97794 21.0136 11.0849 20.5998 12.223 20.6378C13.3611 20.6757 14.438 21.1623 15.2188 21.9913L20.1819 27.26C21.1925 28.3325 22.8444 28.4769 24.0238 27.5975C24.8466 26.9833 25.8603 26.6804 26.8852 26.7426C27.9101 26.8047 28.8799 27.2278 29.6225 27.9369L33.875 32" stroke="#0079B2" stroke-width="2.8125" stroke-linecap="round"/>
<path d="M39.5 20.75C39.5 29.5888 39.5 34.0081 36.7531 36.7531C34.01 39.5 29.5888 39.5 20.75 39.5C11.9112 39.5 7.49188 39.5 4.745 36.7531C2 34.01 2 29.5888 2 20.75C2 11.9112 2 7.49188 4.745 4.745C7.49375 2 11.9112 2 20.75 2C29.5888 2 34.0081 2 36.7531 4.745C38.5794 6.57125 39.1906 9.13812 39.3969 13.25" stroke="#0079B2" stroke-width="2.8125" stroke-linecap="round"/>
</svg>
