<svg width="49" height="50" viewBox="0 0 49 50" fill="none" xmlns="http://www.w3.org/2000/svg">
<path d="M31.7488 38.6121H18.0193M46.9336 27.0747L46.2952 31.507C45.1808 39.2596 44.6225 43.1337 41.9338 45.4494C39.2451 47.7651 35.3024 47.7651 27.4148 47.7651H22.3532C14.4656 47.7651 10.5229 47.7651 7.83424 45.4494C5.14555 43.1337 4.58721 39.2596 3.47283 31.507L2.83441 27.0747C1.96487 21.0406 1.5301 18.0224 2.76805 15.4435C4.00371 12.8646 6.63749 11.2949 11.9028 8.15998L15.072 6.27217C19.8499 3.42329 22.2434 2 24.884 2C27.5247 2 29.9159 3.42329 34.6961 6.27217L37.8653 8.15998C43.1283 11.2949 45.7621 12.8646 47 15.4435" stroke="#0079B2" stroke-width="2.5" stroke-linecap="round"/>
</svg>
