<svg width="39" height="41" viewBox="0 0 39 41" fill="none" xmlns="http://www.w3.org/2000/svg">
<path d="M37.375 28C37.375 33.3025 37.375 35.9556 35.7269 37.6019C34.0806 39.25 31.4275 39.25 26.125 39.25H14.875C9.5725 39.25 6.91937 39.25 5.27312 37.6019C3.625 35.9556 3.625 33.3025 3.625 28V13C3.625 7.6975 3.625 5.04437 5.27312 3.39812C6.91937 1.75 9.5725 1.75 14.875 1.75H26.125C31.4275 1.75 34.0806 1.75 35.7269 3.39812C37.375 5.04437 37.375 7.6975 37.375 13V20.5M13 1.75V9.25M13 39.25V16.75M1.75 20.5H5.5M1.75 28H5.5M1.75 13H5.5M19.5625 10.1875H28.9375M19.5625 16.75H28.9375" stroke="#0079B2" stroke-width="2.8125" stroke-linecap="round"/>
</svg>
