<svg width="33" height="33" viewBox="0 0 33 33" fill="none" xmlns="http://www.w3.org/2000/svg">
<path fill-rule="evenodd" clip-rule="evenodd" d="M25.875 0.09375C26.248 0.09375 26.6056 0.241908 26.8694 0.505631C27.1331 0.769354 27.2812 1.12704 27.2812 1.5V27.2812L30.375 23.1562C30.4858 23.0085 30.6246 22.884 30.7835 22.79C30.9424 22.6959 31.1183 22.634 31.3011 22.6079C31.4839 22.5818 31.6701 22.5919 31.849 22.6377C32.0279 22.6836 32.196 22.7642 32.3438 22.875C32.4915 22.9858 32.616 23.1246 32.71 23.2835C32.8041 23.4424 32.866 23.6183 32.8921 23.8011C32.9182 23.9839 32.9081 24.1701 32.8623 24.349C32.8164 24.5279 32.7358 24.696 32.625 24.8438L27 32.3438C26.8229 32.5799 26.576 32.7543 26.2943 32.8423C26.0126 32.9303 25.7103 32.9274 25.4303 32.8341C25.1503 32.7407 24.9068 32.5617 24.7342 32.3222C24.5616 32.0828 24.4688 31.7951 24.4688 31.5V1.5C24.4688 1.12704 24.6169 0.769354 24.8806 0.505631C25.1444 0.241908 25.502 0.09375 25.875 0.09375ZM7.59375 5.25C7.59375 4.87704 7.74191 4.51935 8.00563 4.25563C8.26935 3.99191 8.62704 3.84375 9 3.84375H18.375C18.748 3.84375 19.1056 3.99191 19.3694 4.25563C19.6331 4.51935 19.7812 4.87704 19.7812 5.25C19.7812 5.62296 19.6331 5.98065 19.3694 6.24437C19.1056 6.50809 18.748 6.65625 18.375 6.65625H9C8.62704 6.65625 8.26935 6.50809 8.00563 6.24437C7.74191 5.98065 7.59375 5.62296 7.59375 5.25ZM3.84375 14.625C3.84375 14.252 3.99191 13.8944 4.25563 13.6306C4.51935 13.3669 4.87704 13.2188 5.25 13.2188H18.375C18.748 13.2188 19.1056 13.3669 19.3694 13.6306C19.6331 13.8944 19.7812 14.252 19.7812 14.625C19.7812 14.998 19.6331 15.3556 19.3694 15.6194C19.1056 15.8831 18.748 16.0312 18.375 16.0312H5.25C4.87704 16.0312 4.51935 15.8831 4.25563 15.6194C3.99191 15.3556 3.84375 14.998 3.84375 14.625ZM0.09375 24C0.09375 23.627 0.241908 23.2694 0.505631 23.0056C0.769354 22.7419 1.12704 22.5938 1.5 22.5938H18.375C18.748 22.5938 19.1056 22.7419 19.3694 23.0056C19.6331 23.2694 19.7812 23.627 19.7812 24C19.7812 24.373 19.6331 24.7306 19.3694 24.9944C19.1056 25.2581 18.748 25.4062 18.375 25.4062H1.5C1.12704 25.4062 0.769354 25.2581 0.505631 24.9944C0.241908 24.7306 0.09375 24.373 0.09375 24Z" fill="#0079B2"/>
</svg>
