<svg width="41" height="34" viewBox="0 0 41 34" fill="none" xmlns="http://www.w3.org/2000/svg">
<path d="M39.5 17C39.5 24.0706 39.5 27.6069 37.3025 29.8025C35.1069 32 31.5706 32 24.5 32H17C9.92938 32 6.39312 32 4.1975 29.8025C2 27.6069 2 24.0706 2 17C2 9.92938 2 6.39312 4.1975 4.1975C6.39312 2 9.92938 2 17 2H24.5C31.5706 2 35.1069 2 37.3025 4.1975C38.5287 5.42187 39.0706 7.0625 39.3088 9.5" stroke="#F7F7F7" stroke-width="2.8125" stroke-linecap="round"/>
<path d="M13.7188 23.5625C13.7188 23.9355 13.8669 24.2931 14.1306 24.5569C14.3944 24.8206 14.752 24.9688 15.125 24.9688C15.498 24.9688 15.8556 24.8206 16.1194 24.5569C16.3831 24.2931 16.5313 23.9355 16.5313 23.5625H13.7188ZM19.3438 14.0469C19.3438 14.4198 19.4919 14.7775 19.7556 15.0412C20.0194 15.305 20.377 15.4531 20.75 15.4531C21.123 15.4531 21.4806 15.305 21.7444 15.0412C22.0081 14.7775 22.1563 14.4198 22.1563 14.0469H19.3438ZM8.09375 14.0469C8.09375 14.4198 8.24191 14.7775 8.50564 15.0412C8.76936 15.305 9.12704 15.4531 9.5 15.4531C9.87297 15.4531 10.2307 15.305 10.4944 15.0412C10.7581 14.7775 10.9063 14.4198 10.9063 14.0469H8.09375ZM11.375 22.1562C11.002 22.1562 10.6444 22.3044 10.3806 22.5681C10.1169 22.8319 9.96875 23.1895 9.96875 23.5625C9.96875 23.9355 10.1169 24.2931 10.3806 24.5569C10.6444 24.8206 11.002 24.9688 11.375 24.9688V22.1562ZM18.875 24.9688C19.248 24.9688 19.6056 24.8206 19.8694 24.5569C20.1331 24.2931 20.2813 23.9355 20.2813 23.5625C20.2813 23.1895 20.1331 22.8319 19.8694 22.5681C19.6056 22.3044 19.248 22.1562 18.875 22.1562V24.9688ZM13.1094 11.8437H15.125V9.03125H13.1094V11.8437ZM15.125 11.8437H17.1406V9.03125H15.125V11.8437ZM16.5313 23.5625V10.4375H13.7188V23.5625H16.5313ZM17.1406 11.8437C17.9938 11.8437 18.5019 11.8456 18.8694 11.8925C19.2013 11.9337 19.2181 11.99 19.1881 11.9619L21.0538 9.86C20.4913 9.3575 19.8331 9.1775 19.2163 9.10063C18.635 9.02938 17.9206 9.03125 17.1406 9.03125V11.8437ZM22.1563 14.0469C22.1563 13.2669 22.1581 12.5525 22.0869 11.9712C22.01 11.3544 21.83 10.6963 21.3275 10.1338L19.2256 12.0012C19.1975 11.9694 19.2538 11.9862 19.295 12.32C19.3419 12.6856 19.3438 13.1938 19.3438 14.0469H22.1563ZM19.1881 11.9619C19.2013 11.9737 19.212 11.9862 19.2238 11.9994L21.3275 10.1338C21.2418 10.0372 21.1504 9.94574 21.0538 9.86L19.1881 11.9619ZM13.1094 9.03125C12.3294 9.03125 11.615 9.02938 11.0338 9.10063C10.4169 9.1775 9.75875 9.3575 9.19625 9.86L11.0638 11.9619C11.0319 11.99 11.0488 11.9337 11.3825 11.8925C11.7481 11.8456 12.2563 11.8437 13.1094 11.8437V9.03125ZM10.9063 14.0469C10.9063 13.1938 10.9081 12.6856 10.955 12.3181C10.9963 11.9863 11.0525 11.9694 11.0244 11.9994L8.9225 10.1338C8.42 10.6963 8.24001 11.3544 8.16313 11.9712C8.09188 12.5525 8.09375 13.2669 8.09375 14.0469H10.9063ZM9.19625 9.86C9.09875 9.94625 9.00875 10.0363 8.9225 10.1338L11.0244 11.9994C11.0362 11.9862 11.0487 11.9755 11.0619 11.9638L9.19625 9.86ZM11.375 24.9688H18.875V22.1562H11.375V24.9688Z" fill="white"/>
</svg>
