<svg width="37" height="41" viewBox="0 0 37 41" fill="none" xmlns="http://www.w3.org/2000/svg">
<path d="M33.7237 20.0494L32.3999 12.3994L35.1731 11.9194L36.4949 19.5694L33.7237 20.0494ZM20.6156 2.8125H11.8987V0H20.6156V2.8125ZM10.1906 4.38375L8.66807 21.9938L5.86495 21.7519L7.38932 4.14L10.1906 4.38375ZM32.3999 12.3994C31.4493 6.90563 26.4956 2.8125 20.6156 2.8125V0C27.7893 0 33.9768 5.00438 35.1731 11.9194L32.3999 12.3994ZM20.6343 33.0938L19.3912 25.5094L22.1662 25.0556L23.4093 32.6381L20.6343 33.0938ZM9.2587 23.445L11.9568 25.77L10.1193 27.9019L7.4212 25.5769L9.2587 23.445ZM16.8637 33.3338L17.7562 36.7725L15.0337 37.4775L14.1412 34.0406L16.8637 33.3338ZM19.1024 37.4475L19.3743 37.3594L20.2349 40.0369L19.9631 40.125L19.1024 37.4475ZM15.5118 29.8763C16.0968 30.9713 16.5524 32.1319 16.8637 33.3338L14.1412 34.0406C13.8849 33.0532 13.5123 32.0996 13.0312 31.2L15.5118 29.8763ZM19.3743 37.3594C19.6419 37.2783 19.8846 37.1309 20.0799 36.931C20.2753 36.731 20.417 36.485 20.4918 36.2156L23.2143 36.9206C23.0206 37.6493 22.6456 38.3172 22.1244 38.8621C21.6031 39.4069 20.9544 39.8111 20.2349 40.0369L19.3743 37.3594ZM17.7562 36.7725C17.7933 36.9077 17.8596 37.0331 17.9503 37.1399C18.0409 37.2468 18.1539 37.3326 18.2812 37.3913L17.0606 39.9244C16.5652 39.6883 16.1273 39.3471 15.7773 38.9245C15.4272 38.5019 15.1735 38.0081 15.0337 37.4775L17.7562 36.7725ZM18.2812 37.3913C18.5378 37.5138 18.8315 37.5339 19.1024 37.4475L19.9631 40.125C19.0055 40.4319 17.9668 40.3601 17.0606 39.9244L18.2812 37.3913ZM22.3199 22.0613H32.0324V24.8738H22.3199V22.0613ZM23.4093 32.6381C23.6437 34.0631 23.5762 35.5219 23.2143 36.9206L20.4918 36.2138C20.7543 35.1956 20.8049 34.1325 20.6343 33.0938L23.4093 32.6381ZM11.8987 2.8125C11.469 2.81328 11.0553 2.97508 10.7391 3.26595C10.4229 3.55683 10.2272 3.95566 10.1906 4.38375L7.38932 4.14C7.48689 3.01095 8.0041 1.95947 8.83889 1.19305C9.67369 0.426636 10.7654 0.000952098 11.8987 0V2.8125ZM11.9568 25.77C13.2318 26.8688 14.6043 28.1756 15.5137 29.8763L13.0312 31.2019C12.3824 29.985 11.3474 28.9594 10.1193 27.9019L11.9568 25.77ZM36.4949 19.5694C36.6078 20.22 36.5771 20.8875 36.4049 21.525C36.2327 22.1625 35.9232 22.7547 35.4981 23.26C35.0729 23.7654 34.5425 24.1716 33.9438 24.4504C33.3452 24.7291 32.6928 24.8736 32.0324 24.8738V22.0613C32.2828 22.0611 32.5302 22.0063 32.7571 21.9005C32.9841 21.7947 33.1852 21.6406 33.3463 21.4489C33.5074 21.2573 33.6247 21.0327 33.6899 20.7909C33.7551 20.5492 33.7666 20.2961 33.7237 20.0494L36.4949 19.5694ZM19.3912 25.5094C19.3213 25.0845 19.3447 24.6496 19.4597 24.2347C19.5747 23.8198 19.7786 23.4349 20.0572 23.1066C20.3358 22.7784 20.6825 22.5147 21.0733 22.3339C21.464 22.153 21.8894 22.0613 22.3199 22.0613V24.8738C22.2262 24.8738 22.1512 24.9581 22.1662 25.0556L19.3912 25.5094ZM8.66807 21.9938C8.6449 22.2653 8.68465 22.5384 8.78765 22.7907C8.89066 23.043 9.0521 23.2673 9.2587 23.445L7.4212 25.5769C6.87748 25.1081 6.45286 24.5168 6.1823 23.8518C5.91174 23.1869 5.80297 22.4671 5.86495 21.7519L8.66807 21.9938Z" fill="#D74444"/>
<path opacity="0.5" d="M1.40625 23.4656L2.80688 23.5856C2.7746 23.9458 2.60482 24.2797 2.3328 24.5179C2.06079 24.7562 1.70745 24.8805 1.34617 24.8651C0.984899 24.8496 0.643458 24.6956 0.392772 24.435C0.142085 24.1744 0.00142242 23.8272 0 23.4656H1.40625ZM4.62938 2.52L2.80688 23.5856L0.00562504 23.3456L1.82625 2.27812L4.62938 2.52ZM2.8125 2.31937V23.4675L0 23.4656V2.31937H2.8125ZM1.82625 2.27812C1.82053 2.34627 1.82904 2.41485 1.85125 2.47953C1.87346 2.5442 1.90887 2.60355 1.95525 2.6538C2.00162 2.70406 2.05794 2.74411 2.12063 2.77143C2.18331 2.79876 2.25099 2.81274 2.31938 2.8125V0C3.68063 0 4.74563 1.16625 4.62938 2.52L1.82625 2.27812ZM2.31938 2.8125C2.45016 2.8125 2.57559 2.76055 2.66807 2.66807C2.76055 2.57559 2.8125 2.45016 2.8125 2.31937H0C0 1.04063 1.03688 0 2.31938 0V2.8125Z" fill="#D74444"/>
</svg>
