<svg width="36" height="39" viewBox="0 0 36 39" fill="none" xmlns="http://www.w3.org/2000/svg">
<path d="M33.7876 12.1854L35.1095 19.8354C35.187 20.2838 35.1657 20.7437 35.047 21.183C34.9282 21.6223 34.715 22.0303 34.4221 22.3785C34.1292 22.7268 33.7638 23.0068 33.3514 23.1991C32.9389 23.3914 32.4895 23.4912 32.0345 23.4917H22.3182C22.0917 23.4919 21.8679 23.5414 21.6624 23.6368C21.4568 23.7321 21.2745 23.871 21.1281 24.0439C20.9816 24.2168 20.8745 24.4194 20.8142 24.6378C20.7539 24.8562 20.7418 25.085 20.7788 25.3086L22.022 32.8929C22.2232 34.125 22.1657 35.3855 21.8532 36.5942C21.5907 37.5936 20.8201 38.3979 19.8038 38.7242L19.532 38.8123C18.9177 39.0085 18.2518 38.9629 17.6701 38.6848C17.3589 38.5372 17.0836 38.3235 16.8634 38.0586C16.6432 37.7937 16.4834 37.484 16.3951 37.1511L15.5026 33.7123C15.2185 32.618 14.8056 31.5613 14.2726 30.5642C13.4926 29.1073 12.2888 27.9392 11.0382 26.8611L8.33821 24.5361C7.96366 24.2128 7.67115 23.8053 7.48471 23.347C7.29827 22.8887 7.22321 22.3927 7.26571 21.8998L8.79008 4.28793C8.85716 3.50936 9.21362 2.7842 9.78912 2.25556C10.3646 1.72691 11.1174 1.43317 11.8988 1.4323H20.6157C27.1426 1.4323 32.7132 5.98105 33.7857 12.1854" fill="#D74444"/>
<path opacity="0.5" fill-rule="evenodd" clip-rule="evenodd" d="M1.3464 24.8979C1.70876 24.9138 2.06323 24.789 2.33576 24.5497C2.60829 24.3103 2.77781 23.9749 2.8089 23.6136L4.62765 2.54606C4.65846 2.23233 4.62499 1.91561 4.52929 1.61525C4.43359 1.3149 4.27766 1.0372 4.07104 0.799121C3.86442 0.561045 3.61143 0.367587 3.32753 0.230565C3.04363 0.0935424 2.73478 0.0158311 2.41984 0.00217685C2.1049 -0.0114774 1.79048 0.0392124 1.49579 0.15115C1.20109 0.263088 0.932311 0.433924 0.705857 0.653224C0.479403 0.872524 0.300031 1.13569 0.178694 1.42663C0.057358 1.71758 -0.00339487 2.03021 0.000146362 2.34543V23.4936C-0.000184005 23.8563 0.13971 24.2052 0.390592 24.4673C0.641475 24.7294 0.983932 24.8825 1.3464 24.8979Z" fill="#D74444"/>
</svg>
