<svg width="36" height="39" viewBox="0 0 36 39" fill="none" xmlns="http://www.w3.org/2000/svg">
<path d="M33.7877 26.7474L35.1096 19.0974C35.1871 18.6491 35.1658 18.1892 35.0471 17.7499C34.9283 17.3106 34.7151 16.9026 34.4222 16.5543C34.1293 16.2061 33.7639 15.926 33.3515 15.7338C32.939 15.5415 32.4896 15.4416 32.0346 15.4412H22.3183C22.0918 15.441 21.868 15.3915 21.6625 15.2961C21.4569 15.2008 21.2746 15.0618 21.1282 14.889C20.9817 14.7161 20.8746 14.5135 20.8143 14.2951C20.754 14.0767 20.7419 13.8478 20.7789 13.6243L22.0221 6.03995C22.2239 4.80852 22.1664 3.54851 21.8533 2.34057C21.7192 1.84123 21.461 1.38393 21.1027 1.01119C20.7444 0.638454 20.2976 0.362395 19.8039 0.208695L19.5321 0.12057C18.9179 -0.0763865 18.2517 -0.0307641 17.6702 0.24807C17.0327 0.55557 16.5677 1.1162 16.3952 1.78182L15.5027 5.22057C15.2185 6.31487 14.8056 7.37162 14.2727 8.3687C13.4927 9.82557 12.2889 10.9937 11.0383 12.0718L8.3383 14.3968C7.964 14.7203 7.67165 15.1278 7.48523 15.5861C7.29881 16.0443 7.22361 16.5402 7.2658 17.0331L8.79018 34.6449C8.85725 35.4235 9.21371 36.1487 9.78922 36.6773C10.3647 37.206 11.1175 37.4997 11.8989 37.5006H20.6158C27.1427 37.5006 32.7133 32.9518 33.7858 26.7474" fill="#44D764"/>
<path opacity="0.5" fill-rule="evenodd" clip-rule="evenodd" d="M1.3464 14.035C1.70876 14.0191 2.06323 14.1439 2.33576 14.3832C2.60829 14.6226 2.77781 14.958 2.8089 15.3193L4.62765 36.3868C4.65846 36.7006 4.62499 37.0173 4.52929 37.3176C4.43359 37.618 4.27766 37.8957 4.07104 38.1338C3.86442 38.3718 3.61143 38.5653 3.32753 38.7023C3.04363 38.8393 2.73478 38.9171 2.41984 38.9307C2.1049 38.9444 1.79048 38.8937 1.49579 38.7817C1.20109 38.6698 0.932311 38.499 0.705857 38.2797C0.479403 38.0604 0.300031 37.7972 0.178694 37.5062C0.057358 37.2153 -0.00339487 36.9027 0.000146362 36.5875V15.4393C0.000299578 15.0769 0.140409 14.7284 0.391242 14.4668C0.642074 14.2051 0.984256 14.0504 1.3464 14.035Z" fill="#44D764"/>
</svg>
