<svg width="37" height="41" viewBox="0 0 37 41" fill="none" xmlns="http://www.w3.org/2000/svg">
<path d="M33.7237 20.2632L32.3999 27.9132L35.1731 28.3932L36.4949 20.7432L33.7237 20.2632ZM20.6156 37.5H11.8987V40.3125H20.6156V37.5ZM10.1906 35.9307L8.66807 18.3188L5.86495 18.5607L7.38932 36.1725L10.1906 35.9307ZM32.3999 27.9132C31.4493 33.4069 26.4956 37.5 20.6156 37.5V40.3125C27.7893 40.3125 33.9768 35.3082 35.1731 28.3932L32.3999 27.9132ZM20.6343 7.21878L19.3912 14.8032L22.1662 15.2569L23.4093 7.6744L20.6343 7.21878ZM9.2587 16.8675L11.9568 14.5425L10.1193 12.4125L7.42495 14.7375L9.2587 16.8675ZM16.8637 6.97878L17.7562 3.54003L15.0337 2.83503L14.1412 6.2719L16.8637 6.97878ZM19.1024 2.86503L19.3743 2.95316L20.2349 0.275655L19.9631 0.18753L19.1024 2.86503ZM15.5118 10.4363C16.0975 9.34127 16.5513 8.18066 16.8637 6.97878L14.1412 6.2719C13.8849 7.25935 13.5122 8.21289 13.0312 9.11253L15.5118 10.4363ZM19.3743 2.95316C19.6419 3.03424 19.8846 3.18159 20.0799 3.38154C20.2753 3.5815 20.417 3.82756 20.4918 4.09691L23.2143 3.39191C23.0206 2.66319 22.6456 1.99532 22.1244 1.45047C21.6031 0.905612 20.9544 0.501471 20.2349 0.275655L19.3743 2.95316ZM17.7562 3.54003C17.7935 3.40493 17.8597 3.27957 17.9504 3.17271C18.0411 3.06584 18.154 2.98004 18.2812 2.92128L17.0606 0.388155C16.0631 0.868155 15.3131 1.75691 15.0337 2.83503L17.7562 3.54003ZM18.2812 2.92128C18.5378 2.79872 18.8315 2.7786 19.1024 2.86503L19.9631 0.18753C19.0055 -0.119371 17.9668 -0.0475706 17.0606 0.388155L18.2812 2.92128ZM22.3199 18.2513H32.0324V15.4388H22.3199V18.2513ZM23.4093 7.6744C23.6432 6.2489 23.5768 4.79026 23.2143 3.39191L20.4918 4.09878C20.7561 5.11751 20.8046 6.1802 20.6343 7.21878L23.4093 7.6744ZM11.8987 37.5C11.4693 37.4993 11.0558 37.3378 10.7397 37.0473C10.4235 36.7568 10.2276 36.3584 10.1906 35.9307L7.38932 36.1725C7.48689 37.3016 8.0041 38.3531 8.83889 39.1195C9.67369 39.8859 10.7654 40.3116 11.8987 40.3125V37.5ZM11.9568 14.5425C13.2318 13.4438 14.6043 12.1369 15.5137 10.4363L13.0312 9.11253C12.3824 10.3294 11.3474 11.355 10.1193 12.4125L11.9568 14.5425ZM36.4949 20.7432C36.6078 20.0925 36.5771 19.425 36.4049 18.7875C36.2327 18.15 35.9232 17.5578 35.4981 17.0525C35.0729 16.5472 34.5425 16.1409 33.9438 15.8622C33.3452 15.5834 32.6928 15.4389 32.0324 15.4388V18.2513C33.0956 18.2513 33.9074 19.2113 33.7237 20.2632L36.4949 20.7432ZM19.3912 14.8032C19.3213 15.228 19.3447 15.663 19.4597 16.0779C19.5747 16.4928 19.7786 16.8777 20.0572 17.2059C20.3358 17.5341 20.6825 17.7978 21.0733 17.9786C21.464 18.1595 21.8894 18.2513 22.3199 18.2513V15.4388C22.2971 15.4389 22.2745 15.4358 22.2537 15.4262C22.233 15.4165 22.2146 15.4024 22.1999 15.3849C22.1852 15.3674 22.1746 15.3468 22.1688 15.3247C22.1629 15.3025 22.1621 15.2794 22.1662 15.2569L19.3912 14.8032ZM8.66807 18.3188C8.6449 18.0473 8.68465 17.7741 8.78765 17.5218C8.89066 17.2695 9.0521 17.0453 9.2587 16.8675L7.4212 14.7357C6.87748 15.2045 6.45286 15.7957 6.1823 16.4607C5.91174 17.1257 5.80297 17.8454 5.86495 18.5607L8.66807 18.3188Z" fill="#44D764"/>
<path opacity="0.5" d="M1.40625 16.8469L2.80688 16.7269C2.7746 16.3667 2.60482 16.0329 2.3328 15.7946C2.06079 15.5563 1.70745 15.432 1.34617 15.4475C0.984899 15.4629 0.643458 15.6169 0.392772 15.8775C0.142085 16.1381 0.00142242 16.4853 0 16.8469H1.40625ZM4.62938 37.7944L2.80688 16.7269L0.00562504 16.9669L1.82625 38.0363L4.62938 37.7944ZM2.8125 37.995V16.845L0 16.8469V37.9932L2.8125 37.995ZM1.82625 38.0363C1.82053 37.9681 1.82904 37.8996 1.85125 37.8349C1.87346 37.7702 1.90887 37.7109 1.95525 37.6606C2.00162 37.6104 2.05794 37.5703 2.12063 37.543C2.18331 37.5157 2.25099 37.5017 2.31938 37.5019V40.3144C3.68063 40.3144 4.74563 39.1482 4.62938 37.7944L1.82625 38.0363ZM2.31938 37.5019C2.59313 37.5019 2.8125 37.725 2.8125 37.995L0 37.9932C0 39.2719 1.03688 40.3144 2.31938 40.3144V37.5019Z" fill="#44D764"/>
</svg>
