<svg width="36" height="40" viewBox="0 0 36 40" fill="none" xmlns="http://www.w3.org/2000/svg">
<path d="M12.6313 5.75459C13.0186 4.65672 13.737 3.70603 14.6874 3.03358C15.6377 2.36112 16.7733 2 17.9375 2C19.1017 2 20.2373 2.36112 21.1876 3.03358C22.138 3.70603 22.8564 4.65672 23.2437 5.75459M33.875 9.5046H2M29.8888 27.1296C29.5569 32.1058 29.39 34.594 27.7681 36.1108C26.1463 37.6296 23.6525 37.6296 18.6631 37.6296H17.2119C12.2244 37.6296 9.73062 37.6296 8.10687 36.1108C6.485 34.594 6.32 32.1058 5.98812 27.1296L5.12562 14.1921M30.7494 14.1921L30.3744 19.8171M13.25 18.8796L14.1875 28.2546M22.625 18.8796L21.6875 28.2546" stroke="#D74444" stroke-width="3" stroke-linecap="round"/>
</svg>
