<svg width="21" height="19" viewBox="0 0 21 19" fill="none" xmlns="http://www.w3.org/2000/svg">
<path d="M19.5 10.5V6C19.5 4.67392 18.9732 3.40215 18.0355 2.46447C17.0979 1.52678 15.8261 1 14.5 1H6C4.67392 1 3.40215 1.52678 2.46447 2.46447C1.52678 3.40215 1 4.67392 1 6V13C1 13.6566 1.12933 14.3068 1.3806 14.9134C1.63188 15.52 2.00017 16.0712 2.46447 16.5355C3.40215 17.4732 4.67392 18 6 18H12.26" stroke="white" stroke-width="1.5" stroke-linecap="round" stroke-linejoin="round"/>
<path d="M1.26001 14.5L4.00001 11.3C4.35985 10.9426 4.83212 10.7205 5.33689 10.6713C5.84166 10.6221 6.34793 10.7488 6.77001 11.03C7.19209 11.3112 7.69836 11.4379 8.20313 11.3887C8.7079 11.3395 9.18017 11.1174 9.54001 10.76L11.87 8.43001C12.5395 7.75824 13.4259 7.34621 14.371 7.26745C15.3162 7.18869 16.2586 7.44832 17.03 8.00001L19.5 9.91001M6.26001 7.67001C6.478 7.66869 6.6936 7.62445 6.8945 7.53982C7.0954 7.45518 7.27766 7.33181 7.43088 7.17673C7.58409 7.02166 7.70527 6.83792 7.78748 6.63602C7.86969 6.43412 7.91132 6.218 7.91001 6.00001C7.9087 5.78201 7.86446 5.56641 7.77982 5.36551C7.69519 5.16461 7.57181 4.98235 7.41674 4.82914C7.26166 4.67592 7.07793 4.55475 6.87603 4.47254C6.67412 4.39033 6.458 4.34869 6.24001 4.35001C5.79975 4.35266 5.37858 4.53009 5.06914 4.84328C4.75971 5.15647 4.58736 5.57975 4.59001 6.02001C4.59266 6.46027 4.7701 6.88144 5.08328 7.19087C5.39647 7.50031 5.81975 7.67266 6.26001 7.67001Z" stroke="white" stroke-width="1.5" stroke-linecap="round" stroke-linejoin="round"/>
<path d="M16.957 12.5V17.5" stroke="white" stroke-width="1.5" stroke-miterlimit="10" stroke-linecap="round"/>
<path d="M19.25 14.605L17.283 12.638C17.2404 12.5948 17.1896 12.5606 17.1337 12.5372C17.0777 12.5138 17.0177 12.5017 16.957 12.5017C16.8963 12.5017 16.8363 12.5138 16.7803 12.5372C16.7244 12.5606 16.6736 12.5948 16.631 12.638L14.664 14.605" stroke="white" stroke-width="1.5" stroke-linecap="round" stroke-linejoin="round"/>
</svg>
