<svg width="41" height="34" viewBox="0 0 41 34" fill="none" xmlns="http://www.w3.org/2000/svg">
<path d="M36.6706 6.04871C36.6706 6.04871 39.4831 9.42371 39.4831 17.2987C39.4831 25.1737 36.6706 28.5487 36.6706 28.5487M32.9206 11.6737C32.9206 11.6737 33.8581 13.3612 33.8581 17.2987C33.8581 21.2362 32.9206 22.9237 32.9206 22.9237M2.84375 10.8806C3.44213 9.82618 4.34453 8.97671 5.43312 8.44308C6.55812 7.92371 7.84438 7.92371 10.4206 7.92371C11.3806 7.92371 11.8606 7.92371 12.3256 7.84496C12.7855 7.76708 13.234 7.63229 13.6606 7.44371C14.0919 7.25433 14.4931 6.98996 15.2938 6.46121L15.7063 6.19121C20.4706 3.04683 22.8556 1.47371 24.8581 2.15808C25.2425 2.28933 25.6137 2.47683 25.9456 2.71121C27.6762 3.92621 27.8075 6.75558 28.07 12.4125C28.1555 14.04 28.2099 15.6691 28.2331 17.2987C28.2331 18.2962 28.1675 20.0887 28.07 22.1831C27.8075 27.8418 27.6762 30.6693 25.9456 31.8862C25.611 32.1209 25.2449 32.3071 24.8581 32.4393C22.8575 33.1218 20.4725 31.5506 15.7044 28.4062L15.2956 28.1362C14.495 27.6075 14.0956 27.3431 13.6625 27.1518C13.2358 26.9639 12.7873 26.8297 12.3275 26.7525C11.8606 26.6737 11.3806 26.6737 10.4206 26.6737C7.84438 26.6737 6.55812 26.6737 5.43312 26.1543C4.34453 25.6207 3.44213 24.7712 2.84375 23.7168C2.255 22.6256 2.1875 21.4931 2.04875 19.2262C2.02813 18.8906 2.01125 18.5587 2 18.2362" stroke="#0079B2" stroke-width="2.8125" stroke-linecap="round"/>
</svg>
